<svg width="61" height="61" viewBox="0 0 61 61" fill="none" xmlns="http://www.w3.org/2000/svg">
<path d="M11.9763 52.6895C10.8263 52.6895 9.84213 52.2795 9.02389 51.4596C8.20425 50.6382 7.79443 49.6514 7.79443 48.499V27.5466C7.79443 26.9529 7.99516 26.455 8.39662 26.0527C8.79668 25.6518 9.29292 25.4514 9.88534 25.4514C10.4778 25.4514 10.9747 25.6518 11.3762 26.0527C11.7762 26.455 11.9763 26.9529 11.9763 27.5466V48.499H45.4308C46.0232 48.499 46.5195 48.7001 46.9195 49.1024C47.321 49.5033 47.5217 50.0006 47.5217 50.5942C47.5217 51.1879 47.321 51.6851 46.9195 52.086C46.5195 52.4883 46.0232 52.6895 45.4308 52.6895H11.9763ZM20.3399 44.3085C19.1899 44.3085 18.2058 43.8985 17.3875 43.0786C16.5679 42.2573 16.1581 41.2704 16.1581 40.118V21.2609C16.1581 20.1085 16.5679 19.1223 17.3875 18.3024C18.2058 17.4811 19.1899 17.0704 20.3399 17.0704H26.6126V12.8799C26.6126 11.7275 27.0224 10.7407 27.8421 9.91936C28.6603 9.09942 29.6444 8.68945 30.7944 8.68945H39.1581C40.3081 8.68945 41.2929 9.09942 42.1125 9.91936C42.9308 10.7407 43.3399 11.7275 43.3399 12.8799V17.0704H49.6126C50.7626 17.0704 51.7474 17.4811 52.5671 18.3024C53.3853 19.1223 53.7944 20.1085 53.7944 21.2609V40.118C53.7944 41.2704 53.3853 42.2573 52.5671 43.0786C51.7474 43.8985 50.7626 44.3085 49.6126 44.3085H20.3399ZM30.7944 17.0704H39.1581V12.8799H30.7944V17.0704ZM20.3399 40.118H49.6126V21.2609H20.3399V40.118ZM20.3399 40.118V21.2609V40.118Z" fill="#30824E"/>
</svg>
