<svg width="61" height="61" viewBox="0 0 61 61" fill="none" xmlns="http://www.w3.org/2000/svg">
<path d="M31.2959 54.0409L31.296 54.0409C31.4092 54.0281 31.5473 53.9873 31.7061 53.9276C31.8684 53.8665 32.067 53.7799 32.3059 53.6661C32.7838 53.4386 33.4355 53.0964 34.3034 52.6167C36.0398 51.657 38.6549 50.1393 42.501 47.8694C45.316 46.2079 47.9517 44.6213 49.9308 43.4034C50.9201 42.7946 51.7463 42.2773 52.349 41.8886C52.6502 41.6943 52.8969 41.5313 53.0809 41.4046C53.2565 41.2836 53.3946 41.1826 53.4604 41.1171C53.9489 40.6304 54.2546 40.0822 54.3611 39.4705C54.4672 38.8606 54.3717 38.2092 54.0949 37.5199L54.0949 37.5199C53.9264 37.1004 53.765 36.792 53.5232 36.5339C53.2824 36.2769 52.9778 36.0868 52.5551 35.8738L52.461 36.0606L52.5551 35.8738L51.6019 35.3935C51.5121 35.3483 51.41 35.3332 51.311 35.3506L41.8543 37.0134L32.4557 38.6656L29.8486 36.0242L29.8486 36.0242L27.2128 33.3542C27.1251 33.2654 27.0055 33.2153 26.8806 33.2153H22.2482C19.9091 33.2153 18.7443 33.2134 18.1213 33.1532C17.8087 33.1229 17.6686 33.0804 17.5925 33.0382C17.5281 33.0025 17.4935 32.96 17.4155 32.8407C17.3344 32.7166 17.2411 32.5785 17.0518 32.4772C16.8768 32.3836 16.6407 32.3321 16.2958 32.2964C15.6026 32.2245 14.3302 32.2063 11.87 32.1743L11.87 32.1743C9.67246 32.1458 8.39706 32.1401 7.63327 32.1809C6.88865 32.2207 6.54968 32.3039 6.32163 32.5355C6.19495 32.6641 6.1216 32.838 6.07066 33.1021C6.02003 33.3646 5.98584 33.7487 5.96166 34.3293C5.91315 35.4938 5.90332 37.5011 5.90332 41.0271C5.90332 43.9799 5.91986 45.9914 5.96031 47.2897C5.98051 47.938 6.00681 48.4137 6.0407 48.7417C6.05758 48.905 6.07698 49.0384 6.10023 49.1408C6.11183 49.1919 6.12563 49.241 6.14295 49.2847C6.15867 49.3245 6.18505 49.3803 6.2315 49.4275C6.30086 49.4979 6.39592 49.5341 6.46852 49.5563C6.55056 49.5813 6.65145 49.6017 6.76832 49.6192C7.00285 49.6543 7.32956 49.6814 7.75745 49.7023C8.61485 49.7442 9.90491 49.7623 11.7335 49.7623H16.695C16.8393 49.7623 16.9756 49.6955 17.064 49.5813L17.4188 49.1233C17.5733 48.9239 17.6917 48.8265 17.8418 48.7682C18.004 48.7053 18.2285 48.678 18.6188 48.678C18.9787 48.678 19.3977 48.7691 20.3119 49.1607C21.2259 49.5522 22.6067 50.2313 24.8826 51.3828C27.2936 52.6026 28.6756 53.2876 29.5526 53.6558C30.4361 54.0266 30.8437 54.092 31.2959 54.0409ZM29.627 39.5479L29.7999 39.3774L29.627 39.5479C31.2155 41.1589 32.1841 42.1692 32.7556 42.8365C33.0417 43.1706 33.2205 43.4098 33.327 43.5894C33.4339 43.7695 33.455 43.8683 33.455 43.9262C33.455 44.3369 33.2813 44.6671 32.9993 44.8837C32.7201 45.0981 32.3189 45.2125 31.8435 45.1579C31.8346 45.1526 31.8221 45.1448 31.8056 45.1336C31.7583 45.1014 31.6929 45.0519 31.6097 44.9844C31.4442 44.8502 31.2219 44.656 30.9576 44.415C30.4299 43.9337 29.7439 43.2737 29.0278 42.5516L29.0278 42.5516L26.5677 40.0715C26.3866 39.889 26.092 39.8872 25.9087 40.0676L25.3068 40.6601L25.3068 40.6601L24.7052 41.2521C24.5215 41.4328 24.519 41.7282 24.6996 41.912L27.1641 44.4204L27.3425 44.2452L27.1641 44.4204C28.5674 45.8486 29.4542 46.6965 30.17 47.1837C30.5326 47.4305 30.8579 47.5897 31.1907 47.6856C31.5231 47.7814 31.8511 47.8106 32.2131 47.8106C35.5546 47.8106 37.1842 43.8196 34.9713 41.2609L34.6457 40.8843L42.509 39.4877C44.7895 39.0827 46.9155 38.7227 48.5033 38.4689C49.2974 38.3419 49.9558 38.2417 50.4312 38.1757C50.6691 38.1427 50.8595 38.1185 50.9973 38.1038C51.0665 38.0965 51.1202 38.0917 51.1591 38.0894C51.1904 38.0875 51.2033 38.0878 51.2045 38.0876C51.4414 38.125 51.6045 38.2425 51.6975 38.3989C51.7928 38.5593 51.8291 38.7862 51.7572 39.0607L51.999 39.1241L51.7572 39.0606C51.7578 39.0585 51.7581 39.0573 51.758 39.0573C51.7575 39.057 51.7442 39.0861 51.6819 39.1508C51.614 39.2213 51.508 39.3142 51.3513 39.4349C51.0386 39.6758 50.5486 40.0094 49.8196 40.4738C48.3631 41.4015 45.9761 42.8361 42.2012 45.0685L42.3284 45.2837L42.2011 45.0685C36.953 48.1722 32.2561 50.9231 31.7563 51.1869C31.7562 51.1869 31.7562 51.1869 31.7562 51.1869L30.9487 51.6128L25.7069 48.9622C23.1141 47.6511 21.752 46.9673 20.8718 46.6134C20.4277 46.4349 20.0964 46.3362 19.7844 46.2836C19.4734 46.2311 19.1912 46.2264 18.8551 46.2264H17.723V40.9467V35.667H21.689H25.8005L29.627 39.5479ZM31.8587 45.166C31.8589 45.1662 31.8579 45.1658 31.8556 45.1646C31.8575 45.1654 31.8586 45.1659 31.8587 45.166ZM11.4564 40.9467V47.0938H10.1045H8.75268V40.9467V34.7996H10.1045H11.4564V40.9467ZM15.0872 40.9467V47.0938H14.4829H13.8786V41.0913C13.8786 39.3731 13.8946 37.7956 13.9203 36.6385C13.9332 36.0596 13.9485 35.5876 13.9654 35.2564C13.9738 35.0902 13.9825 34.9626 13.9912 34.8756C13.9915 34.8724 13.9918 34.8693 13.9921 34.8662C14.0265 34.8569 14.0702 34.8474 14.1223 34.8386C14.2619 34.8149 14.4419 34.7996 14.6253 34.7996H15.0872V40.9467Z" fill="#30824E" stroke="#30824E" strokeWidth="0.5"/>
<path d="M31.8704 28.0575L31.8704 28.0576L31.8772 28.0618C32.3136 28.3314 32.817 28.4753 33.332 28.4753C33.847 28.4753 34.3503 28.3314 34.7867 28.0618L34.7867 28.0618L34.7936 28.0575C39.4928 25.1243 42.198 22.1324 43.7204 19.4507C45.2479 16.7602 45.5306 14.4773 45.5306 13.0575C45.5306 9.19892 42.416 6.05615 38.5563 6.05615C36.4956 6.05615 34.7912 7.17007 33.7355 8.0585C33.5936 8.17791 33.4589 8.29705 33.332 8.41402C33.205 8.29705 33.0703 8.17791 32.9284 8.0585C31.8727 7.17007 30.1684 6.05615 28.1076 6.05615C24.2479 6.05615 21.1333 9.19892 21.1333 13.0575C21.1333 14.4773 21.416 16.7602 22.9435 19.4507C24.466 22.1324 27.1711 25.1243 31.8704 28.0575Z" stroke="#30824E" strokeWidth="3.5" strokeLinecap="round" strokeLinejoin="round"/>
</svg>
