<svg width="61" height="61" viewBox="0 0 61 61" fill="none" xmlns="http://www.w3.org/2000/svg">
<path d="M41.6618 48.5189L40.188 36.7337C39.9791 35.0644 39.1669 33.5289 37.904 32.4158C36.6411 31.3026 35.0146 30.6887 33.3302 30.6893H28.2549C26.5714 30.6898 24.946 31.3043 23.684 32.4173C22.4221 33.5303 21.6105 35.0652 21.4018 36.7337L19.9257 48.5189C19.8447 49.1664 19.9025 49.8237 20.0953 50.4471C20.2882 51.0706 20.6116 51.6459 21.0442 52.1349C21.4767 52.6239 22.0085 53.0154 22.6041 53.2834C23.1998 53.5514 23.8457 53.6898 24.499 53.6893H37.0907C37.7438 53.6895 38.3895 53.5509 38.9849 53.2827C39.5803 53.0146 40.1117 52.623 40.544 52.1341C40.9763 51.6451 41.2996 51.0699 41.4923 50.4466C41.685 49.8233 41.7427 49.1662 41.6618 48.5189V48.5189Z" stroke="#30824E" strokeWidth="3.6" strokeLinecap="round" strokeLinejoin="round"/>
<path d="M30.7946 21.4893C34.61 21.4893 37.703 18.4001 37.703 14.5893C37.703 10.7786 34.61 7.68933 30.7946 7.68933C26.9792 7.68933 23.8862 10.7786 23.8862 14.5893C23.8862 18.4001 26.9792 21.4893 30.7946 21.4893Z" stroke="#30824E" strokeWidth="3.6"/>
<path d="M12.3727 28.3892C14.9163 28.3892 16.9783 26.3297 16.9783 23.7892C16.9783 21.2487 14.9163 19.1892 12.3727 19.1892C9.82908 19.1892 7.76709 21.2487 7.76709 23.7892C7.76709 26.3297 9.82908 28.3892 12.3727 28.3892Z" stroke="#30824E" strokeWidth="3.6"/>
<path d="M49.2174 28.3892C51.761 28.3892 53.823 26.3297 53.823 23.7892C53.823 21.2487 51.761 19.1892 49.2174 19.1892C46.6738 19.1892 44.6118 21.2487 44.6118 23.7892C44.6118 26.3297 46.6738 28.3892 49.2174 28.3892Z" stroke="#30824E" strokeWidth="3.6"/>
<path d="M12.3726 35.2894H11.6679C10.5777 35.2893 9.52275 35.6755 8.6908 36.3792C7.85885 37.083 7.30384 38.0587 7.12449 39.1327L6.35766 43.7327C6.24762 44.3918 6.28264 45.0669 6.4603 45.711C6.63795 46.3552 6.95398 46.953 7.38639 47.4628C7.81879 47.9726 8.35721 48.3822 8.96418 48.6631C9.57115 48.944 10.2321 49.0895 10.9011 49.0894H19.2809M49.2173 35.2894H49.9219C51.0122 35.2893 52.0671 35.6755 52.899 36.3792C53.731 37.083 54.286 38.0587 54.4653 39.1327L55.2322 43.7327C55.3422 44.3918 55.3072 45.0669 55.1295 45.711C54.9519 46.3552 54.6359 46.953 54.2035 47.4628C53.771 47.9726 53.2326 48.3822 52.6257 48.6631C52.0187 48.944 51.3577 49.0895 50.6888 49.0894H42.3089" stroke="#30824E" strokeWidth="3.6" strokeLinecap="round" strokeLinejoin="round"/>
</svg>
