<svg width="61" height="61" viewBox="0 0 61 61" fill="none" xmlns="http://www.w3.org/2000/svg">
<path d="M52.8343 35.7347L50.0168 32.9172C50.3373 32.2594 50.5058 31.5379 50.5097 30.8062C50.5097 29.8314 50.2206 28.8785 49.6791 28.068C49.1375 27.2575 48.3678 26.6258 47.4672 26.2527C46.5666 25.8797 45.5756 25.7821 44.6196 25.9723C43.6635 26.1624 42.7854 26.6318 42.0961 27.3211C41.4068 28.0104 40.9374 28.8886 40.7472 29.8446C40.5571 30.8007 40.6547 31.7917 41.0277 32.6922C41.4007 33.5928 42.0325 34.3626 42.8429 34.9041C43.6535 35.4457 44.6063 35.7347 45.5811 35.7347C46.3134 35.7311 47.0355 35.5626 47.6938 35.2419L50.5097 38.0577V50.5205H40.6525V45.5919C40.6491 42.543 39.4363 39.6199 37.2804 37.464C35.1245 35.3081 32.2015 34.0954 29.1525 34.0919H19.2954C16.2465 34.0954 13.3234 35.3081 11.1675 37.464C9.01161 39.6199 7.79889 42.543 7.79541 45.5919V53.8062H53.7954V38.0577C53.7966 37.6262 53.7123 37.1988 53.5473 36.8001C53.3824 36.4013 53.14 36.0393 52.8343 35.7347ZM11.0811 45.5919C11.0837 43.4141 11.95 41.3263 13.4899 39.7864C15.0298 38.2465 17.1176 37.3802 19.2954 37.3776H29.1525C31.3303 37.3802 33.4181 38.2465 34.958 39.7864C36.498 41.3263 37.3642 43.4141 37.3668 45.5919V50.5205H11.0811V45.5919Z" fill="#30824E"/>
<path d="M24.2236 11.0919C25.8483 11.0919 27.4364 11.5736 28.7872 12.4762C30.1381 13.3788 31.1909 14.6617 31.8126 16.1627C32.4344 17.6637 32.597 19.3153 32.2801 20.9087C31.9631 22.5021 31.1808 23.9658 30.032 25.1146C28.8832 26.2634 27.4196 27.0457 25.8262 27.3627C24.2327 27.6796 22.5811 27.5169 21.0802 26.8952C19.5792 26.2735 18.2963 25.2206 17.3937 23.8698C16.4911 22.519 16.0094 20.9308 16.0094 19.3062C16.0094 17.1276 16.8748 15.0383 18.4153 13.4978C19.9557 11.9573 22.0451 11.0919 24.2236 11.0919ZM24.2236 7.80615C21.9491 7.80615 19.7257 8.48062 17.8346 9.74426C15.9434 11.0079 14.4694 12.804 13.599 14.9053C12.7286 17.0067 12.5009 19.3189 12.9446 21.5497C13.3883 23.7805 14.4836 25.8296 16.0919 27.4379C17.7002 29.0462 19.7493 30.1415 21.9801 30.5852C24.2109 31.029 26.5231 30.8012 28.6245 29.9308C30.7258 29.0604 32.5219 27.5864 33.7855 25.6953C35.0492 23.8041 35.7236 21.5807 35.7236 19.3062C35.7236 16.2562 34.512 13.3311 32.3554 11.1744C30.1987 9.01776 27.2736 7.80615 24.2236 7.80615Z" fill="#30824E"/>
</svg>
