<svg width="59" height="59" viewBox="0 0 59 59" fill="none" xmlns="http://www.w3.org/2000/svg">
<path d="M52.4028 47.4692L42.2526 20.274C42.1123 19.899 41.9004 19.5557 41.6292 19.2637C41.3579 18.9717 41.0326 18.7368 40.6718 18.5723C40.311 18.4078 39.9218 18.317 39.5263 18.305C39.1309 18.2931 38.7371 18.3603 38.3672 18.5027L33.6084 20.3198V15.8458C33.6084 15.0682 33.3037 14.3225 32.7615 13.7727C32.2192 13.2229 31.4838 12.914 30.7169 12.914H23.0666V9.73792C23.0666 8.96037 22.762 8.21466 22.2197 7.66485C21.6775 7.11503 20.942 6.80615 20.1752 6.80615H9.51291C8.7141 6.80615 7.948 7.1279 7.38315 7.70063C6.8183 8.27335 6.50098 9.05013 6.50098 9.86008V51.0881C6.50098 51.493 6.65964 51.8814 6.94206 52.1678C7.22449 52.4542 7.60754 52.615 8.00694 52.615H32.1024C32.5018 52.615 32.8849 52.4542 33.1673 52.1678C33.4497 51.8814 33.6084 51.493 33.6084 51.0881V31.6498L41.1382 51.821C41.2084 52.0085 41.3143 52.1802 41.4499 52.3262C41.5856 52.4722 41.7482 52.5896 41.9286 52.6719C42.109 52.7541 42.3036 52.7995 42.5014 52.8055C42.6991 52.8114 42.896 52.7779 43.0809 52.7067L51.5294 49.439C51.7143 49.3678 51.8836 49.2604 52.0276 49.1229C52.1716 48.9854 52.2874 48.8204 52.3685 48.6375C52.4496 48.4546 52.4944 48.2573 52.5003 48.0568C52.5062 47.8563 52.4731 47.6567 52.4028 47.4692ZM20.0547 15.7083V49.5611H9.51291V9.86008H20.0547V15.7083ZM30.5964 49.5611H23.0666V15.9679H30.5964V49.5611ZM43.4122 49.1794L33.8042 23.4806L39.4365 21.3123L49.0596 47.0111L43.4122 49.1794Z" fill="#30824E"/>
</svg>
