<svg width="61" height="61" viewBox="0 0 61 61" fill="none" xmlns="http://www.w3.org/2000/svg">
<path d="M22.9392 29.5157C22.1657 28.7543 20.9214 28.7641 20.16 29.5376C19.3986 30.3111 19.4084 31.5554 20.1819 32.3168L22.9392 29.5157ZM40.7672 26.6469C41.5689 25.9152 41.6255 24.6721 40.8938 23.8705C40.162 23.0689 38.919 23.0122 38.1174 23.744L40.7672 26.6469ZM26.3902 35.6702L27.7689 34.2697L26.3902 35.6702ZM27.9351 35.6993L26.6102 34.2479L27.9351 35.6993ZM20.1819 32.3168L25.0116 37.0708L27.7689 34.2697L22.9392 29.5157L20.1819 32.3168ZM29.26 37.1508L40.7672 26.6469L38.1174 23.744L26.6102 34.2479L29.26 37.1508ZM25.0116 37.0708C26.1814 38.2223 28.0477 38.2575 29.26 37.1508L26.6102 34.2479C26.9408 33.9461 27.4498 33.9556 27.7689 34.2697L25.0116 37.0708Z" fill="#30824E"/>
<path d="M30.7905 8.06913L50.8891 18.3173C51.2652 18.5091 51.5036 18.8903 51.4945 19.3124C51.2595 30.1558 45.4738 48.5026 30.6376 53.6827C30.4044 53.7641 30.1444 53.7617 29.9122 53.6775C13.6267 47.7689 9.54296 28.7518 9.50226 19.2925C9.50049 18.8806 9.7337 18.5112 10.099 18.3208L29.7614 8.0737C30.0835 7.90583 30.4669 7.90413 30.7905 8.06913Z" stroke="#30824E" strokeWidth="3.93049"/>
</svg>
