<svg width="61" height="61" viewBox="0 0 61 61" fill="none" xmlns="http://www.w3.org/2000/svg">
<path d="M30.5153 22.2232C35.0351 22.2232 38.7357 18.5981 38.7357 14.0813C38.7357 9.56461 35.0351 5.93945 30.5153 5.93945C25.9955 5.93945 22.2949 9.56461 22.2949 14.0813C22.2949 18.5981 25.9955 22.2232 30.5153 22.2232Z" stroke="#30824E" strokeWidth="3.5"/>
<path d="M30.832 31.4212C37.8445 27.309 47.7149 23.7531 51.2611 22.7532C51.9476 22.5596 52.5151 23.0483 52.5151 23.7615V44.3353C52.5151 44.9918 52.023 45.5388 51.3742 45.6394C46.4424 46.4041 40.4175 48.6064 30.7481 53.3911C30.3735 53.5765 29.9288 53.5716 29.5592 53.3766C22.3307 49.5636 15.5929 46.8418 9.59357 45.679C8.9728 45.5586 8.51514 45.0215 8.51514 44.3892V24.2704C8.51514 23.3874 9.38132 22.7605 10.2212 23.033C14.6694 24.4762 21.9945 26.8534 29.4689 31.4098C29.8864 31.6643 30.4102 31.6685 30.832 31.4212Z" stroke="#30824E" strokeWidth="3.8" strokeLinecap="round"/>
</svg>
