<svg width="13" height="13" viewBox="0 0 13 13" fill="none" xmlns="http://www.w3.org/2000/svg">
<path fillRule="evenodd" clipRule="evenodd" d="M3.44849 0.212891C3.69075 0.212891 3.88713 0.40928 3.88713 0.651539V1.22858H9.33503V0.651539C9.33503 0.40928 9.53142 0.212891 9.77368 0.212891C10.0159 0.212891 10.2123 0.40928 10.2123 0.651539V1.22858H11.8147C12.1874 1.22858 12.4895 1.53072 12.4895 1.90343V2.21376V4.25153V11.5365C12.4895 11.9092 12.1874 12.2114 11.8147 12.2114H1.16435C0.79164 12.2114 0.489502 11.9092 0.489502 11.5365V4.25153V2.21376V1.90343C0.489502 1.53072 0.79164 1.22858 1.16435 1.22858H3.00984V0.651539C3.00984 0.40928 3.20623 0.212891 3.44849 0.212891ZM1.40037 4.25153H11.5786V10.6307C11.5786 11.0034 11.2765 11.3055 10.9038 11.3055H2.07521C1.70251 11.3055 1.40037 11.0034 1.40037 10.6307V4.25153Z" fill="#54626C"/>
</svg>
