<svg width="25" height="25" viewBox="0 0 25 25" fill="none" xmlns="http://www.w3.org/2000/svg">
<path fillRule="evenodd" clipRule="evenodd" d="M9.21061 5.12891C9.21061 4.71469 8.87588 4.37891 8.46297 4.37891C8.05006 4.37891 7.71533 4.71469 7.71533 5.12891V5.8689H5.5325C4.98195 5.8689 4.53564 6.31661 4.53564 6.8689V8.40405H4.52783V18.6736C4.52783 19.6135 5.30887 20.3754 6.27232 20.3754H18.7833C19.7468 20.3754 20.5278 19.6135 20.5278 18.6736V8.40405H20.5203V6.8689C20.5203 6.31661 20.074 5.8689 19.5235 5.8689H17.6794V5.12891C17.6794 4.71469 17.3446 4.37891 16.9317 4.37891C16.5188 4.37891 16.1841 4.71469 16.1841 5.12891V5.8689H9.21061V5.12891ZM19.0325 9.76762H6.02311V18.6736C6.02311 18.8079 6.13469 18.9167 6.27232 18.9167H18.7833C18.921 18.9167 19.0325 18.8079 19.0325 18.6736V9.76762Z" fill="#FFFEFE"/>
</svg>
