<svg width="41" height="41" viewBox="0 0 41 41" fill="none" xmlns="http://www.w3.org/2000/svg">
<path fillRule="evenodd" clipRule="evenodd" d="M14.3454 25.7859V8.97575C15.5349 8.96597 17.1997 8.96252 19.0619 8.96316V19.4419C19.0619 20.7801 20.6555 21.4769 21.6379 20.5682L23.5645 18.7864L25.6898 20.638C26.6825 21.5028 28.2318 20.7977 28.2318 19.4811V8.98782C28.7724 8.99022 29.2912 8.99266 29.7807 8.9951V25.7859H29.7631H29.727H29.6909H29.6546H29.6182H29.5817H29.5451H29.5084H29.4716H29.4347H29.3976H29.3605H29.3233H29.2859H29.2485H29.2109H29.1733H29.1355H29.0977H29.0597H29.0217H28.9836H28.9453H28.907H28.8685H28.83H28.7914H28.7527H28.7138H28.6749H28.6359H28.5968H28.5577H28.5184H28.479H28.4396H28.4001H28.3604H28.3207H28.2809H28.241H28.2011H28.161H28.1209H28.0807H28.0404H28H27.9596H27.919H27.8784H27.8377H27.797H27.7561H27.7152H27.6742H27.6331H27.592H27.5508H27.5095H27.4681H27.4267H27.3852H27.3436H27.302H27.2603H27.2185H27.1766H27.1347H27.0928H27.0507H27.0086H26.9664H26.9242H26.8819H26.8396H26.7972H26.7547H26.7122H26.6696H26.6269H26.5842H26.5414H26.4986H26.4558H26.4128H26.3698H26.3268H26.2837H26.2406H26.1974H26.1542H26.1109H26.0675H26.0242H25.9807H25.9372H25.8937H25.8502H25.8065H25.7629H25.7192H25.6754H25.6317H25.5878H25.544H25.5001H25.4561H25.4121H25.3681H25.3241H25.28H25.2358H25.1917H25.1475H25.1033H25.059H25.0147H24.9704H24.926H24.8816H24.8372H24.7928H24.7483H24.7038H24.6593H24.6147H24.5701H24.5255H24.4809H24.4363H24.3916H24.3469H24.3022H24.2575H24.2127H24.168H24.1232H24.0784H24.0336H23.9887H23.9439H23.899H23.8541H23.8092H23.7643H23.7194H23.6745H23.6295H23.5846H23.5396H23.4947H23.4497H23.4047H23.3597H23.3147H23.2698H23.2248H23.1798H23.1347H23.0897H23.0447H22.9997H22.9547H22.9097H22.8647H22.8197H22.7747H22.7297H22.6847H22.6397H22.5947H22.5498H22.5048H22.4598H22.4149H22.3699H22.325H22.2801H22.2352H22.1903H22.1454H22.1005H22.0557H22.0108H21.966H21.9212H21.8764H21.8316H21.7869H21.7421H21.6974H21.6527H21.608H21.5634H21.5187H21.4741H21.4295H21.385H21.3404H21.2959H21.2514H21.207H21.1626H21.1182H21.0738H21.0294H20.9851H20.9409H20.8966H20.8524H20.8082H20.7641H20.72H20.6759H20.6319H20.5879H20.5439H20.5H20.4561H20.4123H20.3685H20.3247H20.281H20.2373H20.1937H20.1501H20.1065H20.063H20.0196H19.9762H19.9328H19.8895H19.8462H19.803H19.7599H19.7168H19.6737H19.6307H19.5878H19.5449H19.502H19.4592H19.4165H19.3738H19.3312H19.2886H19.2461H19.2037H19.1613H19.119H19.0767H19.0345H18.9924H18.9503H18.9083H18.8664H18.8245H18.7827H18.741H18.6993H18.6577H18.6162H18.5747H18.5333H18.492H18.4507H18.4096H18.3685H18.3274H18.2865H18.2456H18.2048H18.1641H18.1234H18.0828H18.0424H18.0019H17.9616H17.9214H17.8812H17.8411H17.8011H17.7612H17.7214H17.6816H17.6419H17.6024H17.5629H17.5235H17.4842H17.4449H17.4058H17.3668H17.3278H17.289H17.2502H17.2115H17.173H17.1345H17.0961H17.0578H17.0196H16.9815H16.9435H16.9056H16.8678H16.8302H16.7926H16.7551H16.7177H16.6804H16.6432H16.6061H16.5692H16.5323H16.4956H16.4589H16.4224H16.3859H16.3496H16.3134H16.2773H16.2413H16.2054H16.1697H16.134H16.0985H16.0631H16.0278H15.9926H15.9575H15.9226H15.8877H15.853H15.8184H15.784H15.7496H15.7154H15.6813H15.6473H15.6135H15.5797H15.5461H15.5126H15.4793H15.4461H15.413H15.38H15.3472H15.3145H15.2819H15.2495H15.2172H15.185H15.1529H15.121H15.0893H15.0576H15.0261H14.9948H14.9636H14.9325H14.9015H14.8707H14.8401H14.8096H14.7792H14.749H14.7189H14.6889H14.6591H14.6295H14.6H14.5706H14.5414H14.5124H14.4834H14.4547H14.4261H14.3976H14.3693H14.3454ZM26.0401 8.97891C24.4814 8.97314 22.8379 8.9683 21.2537 8.96554V17.9381L22.5096 16.7765C23.0848 16.2445 23.9684 16.2314 24.5592 16.7461L26.0401 18.0362V8.97891ZM12.1536 8.99799V25.794C11.7803 25.8149 11.4335 25.8756 11.1135 25.9707C11.1341 21.362 11.106 14.0226 11.0842 10.1C11.142 9.86306 11.2838 9.54644 11.5107 9.31764C11.6529 9.17428 11.8475 9.04116 12.1536 8.99799ZM11.059 29.3593C10.9683 30.3485 11.2185 30.8934 11.4467 31.1893C11.6857 31.4992 11.9891 31.6501 12.1804 31.7034H31.0958C31.8221 31.7034 32.4109 32.2921 32.4109 33.0184C32.4109 33.7447 31.8221 34.3335 31.0958 34.3335H12.1154C12.0078 34.3335 11.8693 34.3261 11.7139 34.2946C10.9825 34.1465 10.057 33.694 9.36404 32.7956C8.65602 31.8776 8.27384 30.603 8.45481 28.9718C8.51978 25.6314 8.48168 15.0467 8.45374 10.0535C8.45307 9.93425 8.46161 9.79692 8.49167 9.64526C8.61589 9.01846 8.95521 8.15922 9.6434 7.46542C10.3606 6.74239 11.4074 6.25609 12.7581 6.36981C14.8524 6.30567 24.7692 6.33911 30.234 6.36723C31.4469 6.37347 32.4109 7.35972 32.4109 8.55878V26.9967C32.4109 27.5183 32.1072 27.9689 31.6671 28.1816C31.4544 28.3294 31.196 28.416 30.9174 28.416H30.8856H30.8536H30.8215H30.7892H30.7569H30.7243H30.6917H30.6589H30.626H30.593H30.5598H30.5265H30.4931H30.4596H30.4259H30.3921H30.3582H30.3241H30.2899H30.2557H30.2212H30.1867H30.152H30.1173H30.0824H30.0474H30.0122H29.977H29.9416H29.9061H29.8705H29.8348H29.799H29.7631H29.727H29.6909H29.6546H29.6182H29.5817H29.5451H29.5084H29.4716H29.4347H29.3976H29.3605H29.3233H29.2859H29.2485H29.2109H29.1733H29.1355H29.0977H29.0597H29.0217H28.9836H28.9453H28.907H28.8685H28.83H28.7914H28.7527H28.7138H28.6749H28.6359H28.5968H28.5577H28.5184H28.479H28.4396H28.4001H28.3604H28.3207H28.2809H28.241H28.2011H28.161H28.1209H28.0807H28.0404H28H27.9596H27.919H27.8784H27.8377H27.797H27.7561H27.7152H27.6742H27.6331H27.592H27.5508H27.5095H27.4681H27.4267H27.3852H27.3436H27.302H27.2603H27.2185H27.1766H27.1347H27.0928H27.0507H27.0086H26.9664H26.9242H26.8819H26.8396H26.7972H26.7547H26.7122H26.6696H26.6269H26.5842H26.5414H26.4986H26.4558H26.4128H26.3698H26.3268H26.2837H26.2406H26.1974H26.1542H26.1109H26.0675H26.0242H25.9807H25.9372H25.8937H25.8502H25.8065H25.7629H25.7192H25.6754H25.6317H25.5878H25.544H25.5001H25.4561H25.4121H25.3681H25.3241H25.28H25.2358H25.1917H25.1475H25.1033H25.059H25.0147H24.9704H24.926H24.8816H24.8372H24.7928H24.7483H24.7038H24.6593H24.6147H24.5701H24.5255H24.4809H24.4363H24.3916H24.3469H24.3022H24.2575H24.2127H24.168H24.1232H24.0784H24.0336H23.9887H23.9439H23.899H23.8541H23.8092H23.7643H23.7194H23.6745H23.6295H23.5846H23.5396H23.4947H23.4497H23.4047H23.3597H23.3147H23.2698H23.2248H23.1798H23.1347H23.0897H23.0447H22.9997H22.9547H22.9097H22.8647H22.8197H22.7747H22.7297H22.6847H22.6397H22.5947H22.5498H22.5048H22.4598H22.4149H22.3699H22.325H22.2801H22.2352H22.1903H22.1454H22.1005H22.0557H22.0108H21.966H21.9212H21.8764H21.8316H21.7869H21.7421H21.6974H21.6527H21.608H21.5634H21.5187H21.4741H21.4295H21.385H21.3404H21.2959H21.2514H21.207H21.1626H21.1182H21.0738H21.0294H20.9851H20.9409H20.8966H20.8524H20.8082H20.7641H20.72H20.6759H20.6319H20.5879H20.5439H20.5H20.4561H20.4123H20.3685H20.3247H20.281H20.2373H20.1937H20.1501H20.1065H20.063H20.0196H19.9762H19.9328H19.8895H19.8462H19.803H19.7599H19.7168H19.6737H19.6307H19.5878H19.5449H19.502H19.4592H19.4165H19.3738H19.3312H19.2886H19.2461H19.2037H19.1613H19.119H19.0767H19.0345H18.9924H18.9503H18.9083H18.8664H18.8245H18.7827H18.741H18.6993H18.6577H18.6162H18.5747H18.5333H18.492H18.4507H18.4096H18.3685H18.3274H18.2865H18.2456H18.2048H18.1641H18.1234H18.0828H18.0424H18.0019H17.9616H17.9214H17.8812H17.8411H17.8011H17.7612H17.7214H17.6816H17.6419H17.6024H17.5629H17.5235H17.4842H17.4449H17.4058H17.3668H17.3278H17.289H17.2502H17.2115H17.173H17.1345H17.0961H17.0578H17.0196H16.9815H16.9435H16.9056H16.8678H16.8302H16.7926H16.7551H16.7177H16.6804H16.6432H16.6061H16.5692H16.5323H16.4956H16.4589H16.4224H16.3859H16.3496H16.3134H16.2773H16.2413H16.2054H16.1697H16.134H16.0985H16.0631H16.0278H15.9926H15.9575H15.9226H15.8877H15.853H15.8184H15.784H15.7496H15.7154H15.6813H15.6473H15.6135H15.5797H15.5461H15.5126H15.4793H15.4461H15.413H15.38H15.3472H15.3145H15.2819H15.2495H15.2172H15.185H15.1529H15.121H15.0893H15.0576H15.0261H14.9948H14.9636H14.9325H14.9015H14.8707H14.8401H14.8096H14.7792H14.749H14.7189H14.6889H14.6591H14.6295H14.6H14.5706H14.5414H14.5124H14.4834H14.4547H14.4261H14.3976H14.3693H14.3412H14.3132H14.2853H14.2576H14.2301H14.2027H14.1755H14.1484H14.1215H14.0948H14.0682H14.0418H14.0155H13.9894H13.9635H13.9377H13.9121H13.8867H13.8614H13.8363H13.8113H13.7865H13.7619H13.7375H13.7132H13.6891H13.6652H13.6414H13.6179H13.5945H13.5712H13.5482H13.5253H13.5026H13.48H13.4577H13.4355H13.4135H13.3917H13.37H13.3486H13.3273H13.3062H13.2853H13.2646H13.244H13.2237H13.2035H13.1835H13.1637H13.1441H13.1247H13.1054H13.0864H13.0676H13.0489H13.0304H13.0121H12.9941H12.9762H12.9585H12.941H12.9237H12.9066H12.8897H12.873H12.8565H12.8402H12.8241H12.8081H12.7924H12.7769H12.7616H12.7465H12.7317H12.717H12.7025H12.6882H12.6742H12.6603H12.6467H12.6332H12.62H12.607H12.5942H12.5816H12.5692H12.557H12.5451H12.5333H12.5218H12.5105H12.4994H12.4886H12.4779H12.4675H12.4573H12.4473C11.8918 28.416 11.6013 28.5771 11.441 28.7129C11.2604 28.8659 11.1476 29.0726 11.092 29.2615C11.0822 29.2948 11.0712 29.3274 11.059 29.3593Z" fill="#9E1D1F"/>
</svg>
