<svg width="41" height="41" viewBox="0 0 41 41" fill="none" xmlns="http://www.w3.org/2000/svg">
<path fillRule="evenodd" clipRule="evenodd" d="M19.3495 9.70004L14.6936 15.0008C14.6829 15.0131 14.6719 15.0251 14.6607 15.037C14.3892 15.3251 14.062 15.5554 13.6984 15.7135C13.3349 15.8716 12.9429 15.9541 12.5462 15.9555L12.5412 15.9555L6.94517 15.9555C6.92242 15.9555 6.8899 15.9629 6.85236 16.0023C6.81373 16.0428 6.78102 16.1082 6.78102 16.1952V25.5069C6.78102 25.5953 6.81417 25.6612 6.85268 25.7016C6.89012 25.7409 6.92247 25.7482 6.94517 25.7482H12.5287H12.5329C12.9361 25.7495 13.3344 25.8343 13.703 25.9973C14.0715 26.1602 14.402 26.3975 14.6742 26.6938L14.6835 26.7039L14.6941 26.7159L19.3435 31.9971C19.3821 32.0361 19.4036 32.0392 19.4059 32.0395L19.4061 32.0396C19.4152 32.0413 19.4375 32.0425 19.4695 32.0288C19.5016 32.0151 19.5313 31.9913 19.5524 31.9602C19.5698 31.9344 19.5935 31.8865 19.5935 31.7965V9.90721C19.5935 9.81861 19.5703 9.77064 19.5526 9.74434C19.5315 9.71284 19.5017 9.68882 19.4697 9.67491C19.4378 9.66105 19.4157 9.66204 19.4067 9.66367L19.4065 9.6637C19.4043 9.664 19.3848 9.66661 19.3495 9.70004ZM17.315 7.7862C19.2694 5.73464 22.3862 7.33791 22.3862 9.90721V31.7965C22.3862 34.3865 19.2289 35.9791 17.2886 33.8886L17.2796 33.8789L17.2639 33.8613L12.6131 28.5784C12.6012 28.5667 12.5878 28.5577 12.5737 28.5515C12.5581 28.5446 12.5417 28.5411 12.5254 28.541H6.94517C5.25014 28.541 3.98828 27.1187 3.98828 25.5069V16.1952C3.98828 14.5841 5.25099 13.1628 6.94517 13.1628H12.5373C12.5533 13.1625 12.5693 13.1592 12.5846 13.1525C12.5972 13.1471 12.6092 13.1394 12.6202 13.1295L17.2769 7.82784C17.2893 7.81371 17.302 7.79982 17.315 7.7862ZM26.3971 14.2255C27.0159 13.7653 27.8906 13.8939 28.3508 14.5127C29.6253 16.2265 30.1869 18.6063 30.1869 20.8522C30.1869 23.098 29.6253 25.4778 28.3508 27.1916C27.8906 27.8104 27.0159 27.939 26.3971 27.4788C25.7782 27.0186 25.6497 26.1439 26.1099 25.525C26.9155 24.4417 27.3941 22.7139 27.3941 20.8522C27.3941 18.9904 26.9155 17.2627 26.1099 16.1793C25.6497 15.5605 25.7782 14.6857 26.3971 14.2255ZM32.8823 8.83404C32.3267 8.29921 31.4428 8.31605 30.9079 8.87165C30.3731 9.42726 30.3899 10.3112 30.9455 10.8461C36.6042 16.2931 36.6277 25.4573 30.9519 30.8526C30.3929 31.3839 30.3705 32.2677 30.9019 32.8267C31.4332 33.3857 32.317 33.408 32.876 32.8767C39.7218 26.3693 39.6704 15.3684 32.8823 8.83404Z" fill="#9E1D1F"/>
</svg>
