<svg width="25" height="25" viewBox="0 0 25 25" fill="none" xmlns="http://www.w3.org/2000/svg">
<path fillRule="evenodd" clipRule="evenodd" d="M4.79883 3.9564C4.79883 3.54604 5.13149 3.21338 5.54184 3.21338H8.66445C8.67817 3.21338 8.69178 3.21384 8.70528 3.21475H11.5467C11.6257 3.21475 11.6897 3.27878 11.6897 3.35776V7.22627C11.6897 7.34236 11.5587 7.41008 11.464 7.34295L10.1296 6.39715C10.0787 6.36105 10.0102 6.36216 9.96046 6.39991L8.73646 7.32879C8.64229 7.40026 8.50699 7.33309 8.50699 7.21487V4.41338H5.99883V20.0155H19.5993V4.41338H14.2974C13.9661 4.41338 13.6974 4.14475 13.6974 3.81338C13.6974 3.48201 13.9661 3.21338 14.2974 3.21338H20.0563C20.4666 3.21338 20.7993 3.54604 20.7993 3.9564V20.4725C20.7993 20.8829 20.4666 21.2155 20.0563 21.2155H5.54184C5.13148 21.2155 4.79883 20.8828 4.79883 20.4725V3.9564ZM8.82569 15.1711C8.49432 15.1711 8.22569 15.4398 8.22569 15.7711C8.22569 16.1025 8.49432 16.3711 8.82569 16.3711H17.2441C17.5755 16.3711 17.8441 16.1025 17.8441 15.7711C17.8441 15.4398 17.5755 15.1711 17.2441 15.1711H8.82569ZM8.22569 13.0382C8.22569 12.7069 8.49432 12.4382 8.82569 12.4382H17.2441C17.5755 12.4382 17.8441 12.7069 17.8441 13.0382C17.8441 13.3696 17.5755 13.6382 17.2441 13.6382H8.82569C8.49432 13.6382 8.22569 13.3696 8.22569 13.0382ZM12.0237 9.70483C11.6923 9.70483 11.4237 9.97346 11.4237 10.3048C11.4237 10.6362 11.6923 10.9048 12.0237 10.9048L17.2429 10.9048C17.5742 10.9048 17.8429 10.6362 17.8429 10.3048C17.8429 9.97346 17.5742 9.70483 17.2429 9.70483L12.0237 9.70483Z" fill="#3A464F"/>
</svg>
