<svg width="25" height="25" viewBox="0 0 25 25" fill="none" xmlns="http://www.w3.org/2000/svg">
<path fillRule="evenodd" clipRule="evenodd" d="M4.99883 17.9875V6.38677H20.5993V17.9875H4.99883ZM4.54184 5.18677C4.13149 5.18677 3.79883 5.51943 3.79883 5.92978V18.4444C3.79883 18.8548 4.13149 19.1875 4.54184 19.1875H21.0563C21.4667 19.1875 21.7993 18.8548 21.7993 18.4444V5.92978C21.7993 5.51943 21.4667 5.18677 21.0563 5.18677H4.54184ZM14.0536 10.3351C13.7223 10.3351 13.4536 10.6038 13.4536 10.9351C13.4536 11.2665 13.7223 11.5351 14.0536 11.5351H18.1629C18.4942 11.5351 18.7629 11.2665 18.7629 10.9351C18.7629 10.6038 18.4942 10.3351 18.1629 10.3351H14.0536ZM15.412 12.7825C15.0806 12.7825 14.812 13.0511 14.812 13.3825C14.812 13.7139 15.0806 13.9825 15.412 13.9825H18.1629C18.4942 13.9825 18.7629 13.7139 18.7629 13.3825C18.7629 13.0511 18.4942 12.7825 18.1629 12.7825H15.412ZM10.0746 12.1887C10.975 12.1887 11.6391 11.5379 11.6391 10.6556C11.6391 9.7733 10.975 9.1225 10.0746 9.1225C9.17427 9.1225 8.51016 9.7733 8.51016 10.6556C8.51016 11.5379 9.17349 12.1887 10.0746 12.1887ZM12.7987 14.8959C12.7987 13.8427 11.4877 12.7603 9.89272 12.7603C8.29774 12.7603 6.98672 13.8427 6.98672 14.8959V15.2516H12.7987V14.8959Z" fill="#3A464F"/>
</svg>
