<svg width="18" height="19" viewBox="0 0 18 19" fill="none" xmlns="http://www.w3.org/2000/svg">
<path d="M15 4.66582H3C2.72152 4.66582 2.45445 4.77644 2.25754 4.97336C2.06062 5.17027 1.95 5.43734 1.95 5.71582V13.7158C1.95 13.9943 2.06062 14.2614 2.25754 14.4583C2.45445 14.6552 2.72152 14.7658 3 14.7658H15C15.2785 14.7658 15.5456 14.6552 15.7425 14.4583C15.9394 14.2614 16.05 13.9943 16.05 13.7158V5.71582C16.05 5.43734 15.9394 5.17027 15.7425 4.97336C15.5456 4.77644 15.2785 4.66582 15 4.66582ZM9 9.04502L4.26015 5.76582H13.7398L9 9.04502ZM3.05 13.6658V6.26623L8.6865 10.1669C8.77857 10.2308 8.88795 10.265 9 10.265C9.11205 10.265 9.22143 10.2308 9.3135 10.1669L14.95 6.26623V13.6658H3.05Z" fill="#3A464F" stroke="#3A464F" strokeWidth="0.1"/>
</svg>
