<svg width="19" height="19" viewBox="0 0 19 19" fill="none" xmlns="http://www.w3.org/2000/svg">
<path d="M15.9072 4.59075H3.90723C3.62875 4.59075 3.36168 4.70137 3.16476 4.89828C2.96785 5.0952 2.85723 5.36227 2.85723 5.64075V13.6407C2.85723 13.9192 2.96785 14.1863 3.16476 14.3832C3.36168 14.5801 3.62875 14.6907 3.90723 14.6907H15.9072C16.1857 14.6907 16.4528 14.5801 16.6497 14.3832C16.8466 14.1863 16.9572 13.9192 16.9572 13.6407V5.64075C16.9572 5.36227 16.8466 5.0952 16.6497 4.89828C16.4528 4.70137 16.1857 4.59075 15.9072 4.59075ZM9.90723 8.96995L5.16738 5.69075H14.6471L9.90723 8.96995ZM3.95723 13.5907V6.19115L9.59373 10.0918C9.6858 10.1557 9.79517 10.1899 9.90723 10.1899C10.0193 10.1899 10.1287 10.1557 10.2207 10.0918L15.8572 6.19115V13.5907H3.95723Z" fill="#9E1D1F" stroke="#9E1D1F" strokeWidth="0.1"/>
</svg>
