<svg width="15" height="15" viewBox="0 0 15 15" fill="none" xmlns="http://www.w3.org/2000/svg">
<path d="M13.4684 5.48002V10.6215C13.4684 11.0999 13.2784 11.5586 12.9402 11.8968C12.6019 12.2351 12.1432 12.4251 11.6649 12.4251H3.72932C3.25099 12.4251 2.79225 12.2351 2.45402 11.8968C2.1158 11.5586 1.92578 11.0999 1.92578 10.6215V5.48002L7.51386 8.76823C7.56937 8.80097 7.63265 8.81824 7.6971 8.81824C7.76155 8.81824 7.82482 8.80097 7.88034 8.76823L13.4684 5.48002ZM11.6649 3.04669C12.1087 3.04662 12.5369 3.21017 12.8676 3.50605C13.1984 3.80192 13.4084 4.20935 13.4576 4.6504L7.6971 8.03888L1.9366 4.6504C1.98577 4.20935 2.19582 3.80192 2.52657 3.50605C2.85732 3.21017 3.28554 3.04662 3.72932 3.04669H11.6649Z" fill="#9E1D1F"/>
</svg>
