<svg width="25" height="25" viewBox="0 0 25 25" fill="none" xmlns="http://www.w3.org/2000/svg">
<path fillRule="evenodd" clipRule="evenodd" d="M8.19531 4.51855C8.5543 4.51855 8.84531 4.80957 8.84531 5.16855V5.93497H15.9789V5.16855C15.9789 4.80957 16.2699 4.51855 16.6289 4.51855C16.9879 4.51855 17.2789 4.80957 17.2789 5.16855V5.93497H19.25C19.8023 5.93497 20.25 6.38268 20.25 6.93497V7.34607V9.94889V19.5171C20.25 20.0694 19.8023 20.5171 19.25 20.5171H5.25C4.69772 20.5171 4.25 20.0694 4.25 19.5171V9.94889V7.34607V6.93497C4.25 6.38268 4.69772 5.93497 5.25 5.93497H7.54531V5.16855C7.54531 4.80957 7.83633 4.51855 8.19531 4.51855ZM5.46449 9.94889H19.0355V18.3144C19.0355 18.8666 18.5878 19.3144 18.0355 19.3144H6.46449C5.91221 19.3144 5.46449 18.8666 5.46449 18.3144V9.94889Z" fill="#3A464F"/>
</svg>
