<svg width="25" height="25" viewBox="0 0 25 25" fill="none" xmlns="http://www.w3.org/2000/svg">
<path fillRule="evenodd" clipRule="evenodd" d="M9.41914 8.80582C9.66208 9.0701 9.64478 9.4813 9.38049 9.72424L7.47725 11.4738C7.15193 11.7728 6.65173 11.7727 6.32653 11.4736L5.51462 10.7266C5.25042 10.4836 5.23328 10.0724 5.47633 9.8082C5.71937 9.54401 6.13057 9.52686 6.39477 9.76991L6.90213 10.2367L8.50071 8.76717C8.765 8.52423 9.17619 8.54153 9.41914 8.80582Z" fill="#3A464F"/>
<path fillRule="evenodd" clipRule="evenodd" d="M11.4941 9.93491C11.4941 9.57593 11.7852 9.28491 12.1441 9.28491H18.7427C19.1016 9.28491 19.3927 9.57593 19.3927 9.93491C19.3927 10.2939 19.1016 10.5849 18.7427 10.5849H12.1441C11.7852 10.5849 11.4941 10.2939 11.4941 9.93491Z" fill="#3A464F"/>
<path fillRule="evenodd" clipRule="evenodd" d="M9.22187 12.5502C9.46481 12.8145 9.44751 13.2257 9.18323 13.4686L7.27998 15.2182C6.95466 15.5172 6.45447 15.5171 6.12926 15.2179L5.31735 14.471C5.05316 14.228 5.03601 13.8168 5.27906 13.5526C5.52211 13.2884 5.93331 13.2712 6.1975 13.5143L6.70486 13.981L8.30344 12.5116C8.56773 12.2686 8.97892 12.2859 9.22187 12.5502Z" fill="#3A464F"/>
<path fillRule="evenodd" clipRule="evenodd" d="M11.4941 13.9269C11.4941 13.5679 11.7852 13.2769 12.1441 13.2769H18.7427C19.1016 13.2769 19.3927 13.5679 19.3927 13.9269C19.3927 14.2858 19.1016 14.5769 18.7427 14.5769H12.1441C11.7852 14.5769 11.4941 14.2858 11.4941 13.9269Z" fill="#3A464F"/>
<path fillRule="evenodd" clipRule="evenodd" d="M3.7993 5.31855C3.61779 5.31855 3.47066 5.47525 3.47066 5.66855V18.3692C3.47066 18.5625 3.61779 18.7192 3.7993 18.7192H20.7007C20.8822 18.7192 21.0293 18.5625 21.0293 18.3692V5.66855C21.0293 5.47526 20.8822 5.31855 20.7007 5.31855H3.7993ZM2.25 5.66855C2.25 4.75728 2.94364 4.01855 3.7993 4.01855H20.7007C21.5564 4.01855 22.25 4.75728 22.25 5.66855V18.3692C22.25 19.2805 21.5564 20.0192 20.7007 20.0192H3.7993C2.94364 20.0192 2.25 19.2805 2.25 18.3692V5.66855Z" fill="#3A464F"/>
</svg>
