<svg width="16" height="19" viewBox="0 0 16 19" fill="none" xmlns="http://www.w3.org/2000/svg">
<path d="M13.5678 8.73605H9.27285C8.8823 8.73605 8.50775 8.57802 8.23159 8.29671C7.95543 8.01541 7.80029 7.63388 7.80029 7.23605V2.86105C7.80029 2.8279 7.78736 2.79611 7.76435 2.77267C7.74133 2.74922 7.71012 2.73605 7.67757 2.73605H4.85516C4.33443 2.73605 3.83503 2.94677 3.46682 3.32184C3.09861 3.69691 2.89175 4.20562 2.89175 4.73605V14.7361C2.89175 15.2665 3.09861 15.7752 3.46682 16.1503C3.83503 16.5253 4.33443 16.7361 4.85516 16.7361H11.7271C12.2478 16.7361 12.7473 16.5253 13.1155 16.1503C13.4837 15.7752 13.6905 15.2665 13.6905 14.7361V8.86105C13.6905 8.8279 13.6776 8.79611 13.6546 8.77267C13.6316 8.74922 13.6004 8.73605 13.5678 8.73605ZM7.94854 13.7361H5.83687C5.70669 13.7361 5.58184 13.6834 5.48979 13.5896C5.39773 13.4958 5.34602 13.3687 5.34602 13.2361C5.34602 13.1034 5.39773 12.9763 5.48979 12.8825C5.58184 12.7887 5.70669 12.7361 5.83687 12.7361H7.94854C8.07872 12.7361 8.20358 12.7887 8.29563 12.8825C8.38768 12.9763 8.4394 13.1034 8.4394 13.2361C8.4394 13.3687 8.38768 13.4958 8.29563 13.5896C8.20358 13.6834 8.07872 13.7361 7.94854 13.7361ZM10.7454 11.2361H5.83687C5.70669 11.2361 5.58184 11.1834 5.48979 11.0896C5.39773 10.9958 5.34602 10.8687 5.34602 10.7361C5.34602 10.6034 5.39773 10.4763 5.48979 10.3825C5.58184 10.2887 5.70669 10.2361 5.83687 10.2361H10.7454C10.8756 10.2361 11.0004 10.2887 11.0925 10.3825C11.1846 10.4763 11.2363 10.6034 11.2363 10.7361C11.2363 10.8687 11.1846 10.9958 11.0925 11.0896C11.0004 11.1834 10.8756 11.2361 10.7454 11.2361Z" fill="#9E1D1F"/>
<path d="M13.8739 7.59286L9.46204 3.0988C9.45346 3.09011 9.44255 3.0842 9.43068 3.08181C9.41881 3.07942 9.40651 3.08066 9.39533 3.08537C9.38415 3.09008 9.37459 3.09805 9.36784 3.10828C9.3611 3.11851 9.35747 3.13054 9.35742 3.14287V7.19943C9.35742 7.33204 9.40914 7.45921 9.50119 7.55298C9.59324 7.64675 9.71809 7.69943 9.84828 7.69943H13.8306C13.8427 7.69938 13.8545 7.69568 13.8646 7.68881C13.8746 7.68194 13.8825 7.6722 13.8871 7.66081C13.8917 7.64942 13.8929 7.6369 13.8906 7.62481C13.8882 7.61272 13.8824 7.6016 13.8739 7.59286Z" fill="#9E1D1F"/>
</svg>
