<svg width="25" height="25" viewBox="0 0 25 25" fill="none" xmlns="http://www.w3.org/2000/svg">
<mask id="path-1-outside-1_1898_26204" maskUnits="userSpaceOnUse" x="2.79883" y="3.21338" width="20" height="18" fill="black">
<rect fill="white" x="2.79883" y="3.21338" width="20" height="18"/>
<path fillRule="evenodd" clipRule="evenodd" d="M8.87355 17.5015C10.1532 18.4515 11.7422 18.9678 13.381 18.96C15.0198 18.9522 16.6031 18.4208 17.8722 17.4588C19.1408 16.4973 20.0186 15.1647 20.3715 13.6832C20.7244 12.2024 20.5343 10.6519 19.8291 9.28257C19.1235 7.91236 17.941 6.80016 16.4674 6.13534C14.9933 5.47032 13.3205 5.29511 11.7244 5.64058C10.1285 5.98601 8.71126 6.82969 7.70038 8.02557C6.76786 9.12876 6.23113 10.4719 6.15409 11.8647H6.7894C7.0295 11.8647 7.17231 12.1328 7.03842 12.332L5.63269 14.4244C5.51086 14.6057 5.24228 14.6002 5.128 14.414L3.84363 12.3217C3.72093 12.1218 3.86475 11.8647 4.0993 11.8647H4.89834C4.97653 10.1689 5.62273 8.54074 6.74257 7.21595C7.93838 5.80128 9.60251 4.81666 11.4591 4.41482C13.3155 4.01301 15.2622 4.21576 16.9831 4.99214C18.7045 5.76872 20.1035 7.07614 20.9441 8.70836C21.7851 10.3415 22.0145 12.1987 21.5915 13.9739C21.1687 15.7486 20.1213 17.3279 18.6298 18.4583C17.139 19.5883 15.2906 20.2051 13.387 20.2141C11.4834 20.2232 9.62863 19.624 8.12597 18.5085C7.8479 18.302 7.78983 17.9093 7.99627 17.6312C8.2027 17.3531 8.59548 17.295 8.87355 17.5015ZM13.8781 14.2107C13.84 14.3048 13.7787 14.3755 13.6944 14.4225C13.612 14.4715 13.5277 14.496 13.4413 14.496H13.0889L14.8271 10.2784C14.8612 10.1936 14.9155 10.1277 14.9898 10.0806C15.0641 10.0335 15.1494 10.01 15.2458 10.01H15.6013L13.8781 14.2107ZM12.4304 10.9083C12.4023 10.9516 12.3732 10.9837 12.3431 11.0044C12.315 11.0232 12.2778 11.0326 12.2316 11.0326C12.1874 11.0326 12.1392 11.0185 12.087 10.9903C12.0368 10.9601 11.9775 10.9281 11.9093 10.8942C11.841 10.8603 11.7627 10.8292 11.6743 10.801C11.5859 10.7709 11.4825 10.7558 11.364 10.7558C11.1551 10.7558 10.9985 10.8 10.894 10.8886C10.7896 10.9752 10.7374 11.0891 10.7374 11.2304C10.7374 11.3208 10.7655 11.3961 10.8217 11.4564C10.88 11.5148 10.9553 11.5656 11.0477 11.6089C11.1421 11.6522 11.2485 11.6908 11.367 11.7247C11.4855 11.7586 11.607 11.7963 11.7315 11.8377C11.856 11.8773 11.9775 11.9244 12.096 11.979C12.2145 12.0336 12.32 12.1023 12.4124 12.1852C12.5068 12.2681 12.5821 12.3698 12.6383 12.4903C12.6965 12.6089 12.7257 12.754 12.7257 12.9253C12.7257 13.1118 12.6905 13.2869 12.6202 13.4508C12.5519 13.6127 12.4525 13.7549 12.322 13.8773C12.1914 13.9979 12.0298 14.093 11.837 14.1627C11.6462 14.2323 11.4293 14.2672 11.1863 14.2672C11.0477 14.2672 10.9091 14.254 10.7705 14.2276C10.634 14.2013 10.5014 14.1645 10.3729 14.1175C10.2463 14.0704 10.1268 14.0139 10.0144 13.948C9.90191 13.882 9.8035 13.8086 9.71915 13.7276L9.98425 13.3265C10.0063 13.2963 10.0355 13.2719 10.0716 13.253C10.1078 13.2323 10.1459 13.222 10.1861 13.222C10.2403 13.222 10.2976 13.2408 10.3578 13.2785C10.4181 13.3161 10.4873 13.3575 10.5657 13.4027C10.644 13.4479 10.7344 13.4894 10.8368 13.527C10.9412 13.5647 11.0658 13.5835 11.2104 13.5835C11.4212 13.5835 11.5839 13.5383 11.6984 13.4479C11.8149 13.3575 11.8731 13.2229 11.8731 13.044C11.8731 12.9404 11.844 12.8566 11.7858 12.7926C11.7295 12.7285 11.6552 12.6749 11.5628 12.6315C11.4704 12.5882 11.365 12.5515 11.2465 12.5214C11.128 12.4894 11.0065 12.4545 10.882 12.4168C10.7575 12.3792 10.636 12.334 10.5175 12.2813C10.399 12.2285 10.2935 12.1588 10.2012 12.0722C10.1088 11.9856 10.0335 11.8782 9.97521 11.7502C9.91898 11.6221 9.89086 11.463 9.89086 11.2727C9.89086 11.1202 9.923 10.9724 9.98727 10.8292C10.0515 10.6861 10.1459 10.559 10.2704 10.4479C10.395 10.3368 10.5476 10.2473 10.7283 10.1795C10.9111 10.1117 11.12 10.0778 11.355 10.0778C11.6181 10.0778 11.8611 10.1164 12.084 10.1936C12.3089 10.269 12.4987 10.3744 12.6534 10.51L12.4304 10.9083ZM16.0272 13.6372C16.0031 13.6918 15.991 13.7502 15.991 13.8124C15.991 13.8764 16.0031 13.9357 16.0272 13.9903C16.0533 14.0449 16.0884 14.093 16.1326 14.1344C16.1768 14.174 16.228 14.205 16.2862 14.2276C16.3465 14.2502 16.4118 14.2615 16.4821 14.2615C16.5503 14.2615 16.6146 14.2502 16.6749 14.2276C16.7351 14.205 16.7873 14.174 16.8315 14.1344C16.8757 14.093 16.9098 14.0449 16.9339 13.9903C16.9601 13.9357 16.9731 13.8764 16.9731 13.8124C16.9731 13.7502 16.9601 13.6918 16.9339 13.6372C16.9098 13.5807 16.8757 13.5327 16.8315 13.4931C16.7873 13.4517 16.7351 13.4197 16.6749 13.3971C16.6146 13.3726 16.5503 13.3604 16.4821 13.3604C16.4118 13.3604 16.3465 13.3726 16.2862 13.3971C16.228 13.4197 16.1768 13.4517 16.1326 13.4931C16.0884 13.5327 16.0533 13.5807 16.0272 13.6372Z"/>
</mask>
<path fillRule="evenodd" clipRule="evenodd" d="M8.87355 17.5015C10.1532 18.4515 11.7422 18.9678 13.381 18.96C15.0198 18.9522 16.6031 18.4208 17.8722 17.4588C19.1408 16.4973 20.0186 15.1647 20.3715 13.6832C20.7244 12.2024 20.5343 10.6519 19.8291 9.28257C19.1235 7.91236 17.941 6.80016 16.4674 6.13534C14.9933 5.47032 13.3205 5.29511 11.7244 5.64058C10.1285 5.98601 8.71126 6.82969 7.70038 8.02557C6.76786 9.12876 6.23113 10.4719 6.15409 11.8647H6.7894C7.0295 11.8647 7.17231 12.1328 7.03842 12.332L5.63269 14.4244C5.51086 14.6057 5.24228 14.6002 5.128 14.414L3.84363 12.3217C3.72093 12.1218 3.86475 11.8647 4.0993 11.8647H4.89834C4.97653 10.1689 5.62273 8.54074 6.74257 7.21595C7.93838 5.80128 9.60251 4.81666 11.4591 4.41482C13.3155 4.01301 15.2622 4.21576 16.9831 4.99214C18.7045 5.76872 20.1035 7.07614 20.9441 8.70836C21.7851 10.3415 22.0145 12.1987 21.5915 13.9739C21.1687 15.7486 20.1213 17.3279 18.6298 18.4583C17.139 19.5883 15.2906 20.2051 13.387 20.2141C11.4834 20.2232 9.62863 19.624 8.12597 18.5085C7.8479 18.302 7.78983 17.9093 7.99627 17.6312C8.2027 17.3531 8.59548 17.295 8.87355 17.5015ZM13.8781 14.2107C13.84 14.3048 13.7787 14.3755 13.6944 14.4225C13.612 14.4715 13.5277 14.496 13.4413 14.496H13.0889L14.8271 10.2784C14.8612 10.1936 14.9155 10.1277 14.9898 10.0806C15.0641 10.0335 15.1494 10.01 15.2458 10.01H15.6013L13.8781 14.2107ZM12.4304 10.9083C12.4023 10.9516 12.3732 10.9837 12.3431 11.0044C12.315 11.0232 12.2778 11.0326 12.2316 11.0326C12.1874 11.0326 12.1392 11.0185 12.087 10.9903C12.0368 10.9601 11.9775 10.9281 11.9093 10.8942C11.841 10.8603 11.7627 10.8292 11.6743 10.801C11.5859 10.7709 11.4825 10.7558 11.364 10.7558C11.1551 10.7558 10.9985 10.8 10.894 10.8886C10.7896 10.9752 10.7374 11.0891 10.7374 11.2304C10.7374 11.3208 10.7655 11.3961 10.8217 11.4564C10.88 11.5148 10.9553 11.5656 11.0477 11.6089C11.1421 11.6522 11.2485 11.6908 11.367 11.7247C11.4855 11.7586 11.607 11.7963 11.7315 11.8377C11.856 11.8773 11.9775 11.9244 12.096 11.979C12.2145 12.0336 12.32 12.1023 12.4124 12.1852C12.5068 12.2681 12.5821 12.3698 12.6383 12.4903C12.6965 12.6089 12.7257 12.754 12.7257 12.9253C12.7257 13.1118 12.6905 13.2869 12.6202 13.4508C12.5519 13.6127 12.4525 13.7549 12.322 13.8773C12.1914 13.9979 12.0298 14.093 11.837 14.1627C11.6462 14.2323 11.4293 14.2672 11.1863 14.2672C11.0477 14.2672 10.9091 14.254 10.7705 14.2276C10.634 14.2013 10.5014 14.1645 10.3729 14.1175C10.2463 14.0704 10.1268 14.0139 10.0144 13.948C9.90191 13.882 9.8035 13.8086 9.71915 13.7276L9.98425 13.3265C10.0063 13.2963 10.0355 13.2719 10.0716 13.253C10.1078 13.2323 10.1459 13.222 10.1861 13.222C10.2403 13.222 10.2976 13.2408 10.3578 13.2785C10.4181 13.3161 10.4873 13.3575 10.5657 13.4027C10.644 13.4479 10.7344 13.4894 10.8368 13.527C10.9412 13.5647 11.0658 13.5835 11.2104 13.5835C11.4212 13.5835 11.5839 13.5383 11.6984 13.4479C11.8149 13.3575 11.8731 13.2229 11.8731 13.044C11.8731 12.9404 11.844 12.8566 11.7858 12.7926C11.7295 12.7285 11.6552 12.6749 11.5628 12.6315C11.4704 12.5882 11.365 12.5515 11.2465 12.5214C11.128 12.4894 11.0065 12.4545 10.882 12.4168C10.7575 12.3792 10.636 12.334 10.5175 12.2813C10.399 12.2285 10.2935 12.1588 10.2012 12.0722C10.1088 11.9856 10.0335 11.8782 9.97521 11.7502C9.91898 11.6221 9.89086 11.463 9.89086 11.2727C9.89086 11.1202 9.923 10.9724 9.98727 10.8292C10.0515 10.6861 10.1459 10.559 10.2704 10.4479C10.395 10.3368 10.5476 10.2473 10.7283 10.1795C10.9111 10.1117 11.12 10.0778 11.355 10.0778C11.6181 10.0778 11.8611 10.1164 12.084 10.1936C12.3089 10.269 12.4987 10.3744 12.6534 10.51L12.4304 10.9083ZM16.0272 13.6372C16.0031 13.6918 15.991 13.7502 15.991 13.8124C15.991 13.8764 16.0031 13.9357 16.0272 13.9903C16.0533 14.0449 16.0884 14.093 16.1326 14.1344C16.1768 14.174 16.228 14.205 16.2862 14.2276C16.3465 14.2502 16.4118 14.2615 16.4821 14.2615C16.5503 14.2615 16.6146 14.2502 16.6749 14.2276C16.7351 14.205 16.7873 14.174 16.8315 14.1344C16.8757 14.093 16.9098 14.0449 16.9339 13.9903C16.9601 13.9357 16.9731 13.8764 16.9731 13.8124C16.9731 13.7502 16.9601 13.6918 16.9339 13.6372C16.9098 13.5807 16.8757 13.5327 16.8315 13.4931C16.7873 13.4517 16.7351 13.4197 16.6749 13.3971C16.6146 13.3726 16.5503 13.3604 16.4821 13.3604C16.4118 13.3604 16.3465 13.3726 16.2862 13.3971C16.228 13.4197 16.1768 13.4517 16.1326 13.4931C16.0884 13.5327 16.0533 13.5807 16.0272 13.6372Z" fill="#3A464F"/>
<path d="M13.381 18.96L13.3815 19.06L13.381 18.96ZM8.87355 17.5015L8.93316 17.4212L8.93316 17.4212L8.87355 17.5015ZM17.8722 17.4588L17.9326 17.5385L17.9326 17.5385L17.8722 17.4588ZM20.3715 13.6832L20.4688 13.7064L20.4688 13.7064L20.3715 13.6832ZM19.8291 9.28257L19.918 9.23678L19.918 9.23678L19.8291 9.28257ZM16.4674 6.13534L16.5085 6.04418L16.5085 6.04418L16.4674 6.13534ZM11.7244 5.64058L11.7033 5.54285L11.7033 5.54285L11.7244 5.64058ZM7.70038 8.02557L7.62401 7.96102L7.62401 7.96102L7.70038 8.02557ZM6.15409 11.8647L6.05424 11.8592L6.04841 11.9647H6.15409V11.8647ZM7.03842 12.332L7.12142 12.3878L7.12142 12.3878L7.03842 12.332ZM5.63269 14.4244L5.54968 14.3686L5.54968 14.3686L5.63269 14.4244ZM5.128 14.414L5.21322 14.3617L5.21322 14.3617L5.128 14.414ZM3.84363 12.3217L3.7584 12.374L3.7584 12.374L3.84363 12.3217ZM4.89834 11.8647V11.9647H4.99383L4.99823 11.8693L4.89834 11.8647ZM6.74257 7.21595L6.6662 7.15139L6.6662 7.15139L6.74257 7.21595ZM11.4591 4.41482L11.4803 4.51255L11.4803 4.51255L11.4591 4.41482ZM16.9831 4.99214L17.0242 4.90099L17.0242 4.90099L16.9831 4.99214ZM20.9441 8.70836L20.8552 8.75415L20.8552 8.75415L20.9441 8.70836ZM21.5915 13.9739L21.4943 13.9507L21.4943 13.9507L21.5915 13.9739ZM18.6298 18.4583L18.5694 18.3786L18.5694 18.3786L18.6298 18.4583ZM13.387 20.2141L13.3875 20.3141L13.3875 20.3141L13.387 20.2141ZM8.12597 18.5085L8.18558 18.4282L8.18558 18.4282L8.12597 18.5085ZM7.99627 17.6312L8.07656 17.6908L8.07656 17.6908L7.99627 17.6312ZM13.6944 14.4225L13.6456 14.3352L13.6433 14.3366L13.6944 14.4225ZM13.8781 14.2107L13.7856 14.1727L13.7855 14.1731L13.8781 14.2107ZM13.0889 14.496L12.9964 14.4579L12.9395 14.596H13.0889V14.496ZM14.8271 10.2784L14.9196 10.3165L14.9199 10.3157L14.8271 10.2784ZM14.9898 10.0806L14.9363 9.99616L14.9363 9.99616L14.9898 10.0806ZM15.6013 10.01L15.6938 10.048L15.7504 9.91001H15.6013V10.01ZM12.3431 11.0044L12.3987 11.0875L12.3997 11.0868L12.3431 11.0044ZM12.4304 10.9083L12.5145 10.9629L12.5177 10.9572L12.4304 10.9083ZM12.087 10.9903L12.0355 11.0761L12.0394 11.0782L12.087 10.9903ZM11.6743 10.801L11.642 10.8957L11.6438 10.8962L11.6743 10.801ZM10.894 10.8886L10.9579 10.9655L10.9587 10.9648L10.894 10.8886ZM10.8217 11.4564L10.7486 11.5246L10.7509 11.527L10.8217 11.4564ZM11.0477 11.6089L11.0052 11.6995L11.006 11.6998L11.0477 11.6089ZM11.367 11.7247L11.3395 11.8209L11.3395 11.8209L11.367 11.7247ZM11.7315 11.8377L11.6999 11.9326L11.7013 11.933L11.7315 11.8377ZM12.096 11.979L12.0542 12.0698L12.0542 12.0698L12.096 11.979ZM12.4124 12.1852L12.3456 12.2596L12.3464 12.2604L12.4124 12.1852ZM12.6383 12.4903L12.5477 12.5326L12.5485 12.5344L12.6383 12.4903ZM12.6202 13.4508L12.5283 13.4113L12.5281 13.4119L12.6202 13.4508ZM12.322 13.8773L12.3898 13.9508L12.3904 13.9503L12.322 13.8773ZM11.837 14.1627L11.803 14.0686L11.8027 14.0687L11.837 14.1627ZM10.7705 14.2276L10.7516 14.3258L10.7518 14.3259L10.7705 14.2276ZM10.3729 14.1175L10.338 14.2112L10.3385 14.2114L10.3729 14.1175ZM10.0144 13.948L10.0649 13.8617L10.0649 13.8617L10.0144 13.948ZM9.71915 13.7276L9.63572 13.6725L9.58976 13.742L9.64989 13.7998L9.71915 13.7276ZM9.98425 13.3265L9.90351 13.2673L9.90082 13.2713L9.98425 13.3265ZM10.0716 13.253L10.1179 13.3418L10.1213 13.3398L10.0716 13.253ZM10.3578 13.2785L10.4108 13.1937L10.4108 13.1937L10.3578 13.2785ZM10.5657 13.4027L10.6157 13.3161L10.6157 13.3161L10.5657 13.4027ZM10.8368 13.527L10.8023 13.6209L10.8029 13.6211L10.8368 13.527ZM11.6984 13.4479L11.6371 13.3689L11.6364 13.3695L11.6984 13.4479ZM11.7858 12.7926L11.7106 12.8586L11.7118 12.8598L11.7858 12.7926ZM11.5628 12.6315L11.5204 12.7221L11.5204 12.7221L11.5628 12.6315ZM11.2465 12.5214L11.2204 12.6179L11.2219 12.6183L11.2465 12.5214ZM10.882 12.4168L10.9109 12.3211L10.9109 12.3211L10.882 12.4168ZM10.5175 12.2813L10.4768 12.3726L10.4768 12.3726L10.5175 12.2813ZM10.2012 12.0722L10.1328 12.1452L10.1328 12.1452L10.2012 12.0722ZM9.97521 11.7502L9.88365 11.7904L9.88419 11.7916L9.97521 11.7502ZM10.2704 10.4479L10.337 10.5225L10.337 10.5225L10.2704 10.4479ZM10.7283 10.1795L10.6936 10.0857L10.6932 10.0859L10.7283 10.1795ZM12.084 10.1936L12.0513 10.2881L12.0522 10.2884L12.084 10.1936ZM12.6534 10.51L12.7406 10.5589L12.7802 10.4882L12.7193 10.4348L12.6534 10.51ZM16.0272 13.6372L15.9364 13.5953L15.9357 13.5968L16.0272 13.6372ZM16.0272 13.9903L15.9356 14.0307L15.9369 14.0335L16.0272 13.9903ZM16.1326 14.1344L16.0642 14.2074L16.0659 14.2089L16.1326 14.1344ZM16.2862 14.2276L16.2501 14.3209L16.2511 14.3213L16.2862 14.2276ZM16.6749 14.2276L16.71 14.3213L16.71 14.3213L16.6749 14.2276ZM16.8315 14.1344L16.8982 14.2089L16.8999 14.2074L16.8315 14.1344ZM16.9339 13.9903L16.8437 13.9472L16.8425 13.95L16.9339 13.9903ZM16.9339 13.6372L16.8419 13.6765L16.8437 13.6803L16.9339 13.6372ZM16.8315 13.4931L16.7631 13.5661L16.7648 13.5677L16.8315 13.4931ZM16.6749 13.3971L16.6372 13.4898L16.6397 13.4907L16.6749 13.3971ZM16.2862 13.3971L16.3224 13.4903L16.3239 13.4897L16.2862 13.3971ZM16.1326 13.4931L16.1993 13.5677L16.201 13.5661L16.1326 13.4931ZM13.3805 18.86C11.7628 18.8677 10.195 18.358 8.93316 17.4212L8.81394 17.5818C10.1114 18.545 11.7216 19.0679 13.3815 19.06L13.3805 18.86ZM17.8118 17.3791C16.5603 18.3277 14.9982 18.8523 13.3805 18.86L13.3815 19.06C15.0414 19.0521 16.6458 18.5139 17.9326 17.5385L17.8118 17.3791ZM20.2743 13.6601C19.9269 15.1182 19.0626 16.4311 17.8118 17.3791L17.9326 17.5385C19.219 16.5635 20.1103 15.2113 20.4688 13.7064L20.2743 13.6601ZM19.7402 9.32835C20.4345 10.6766 20.6215 12.2027 20.2743 13.6601L20.4688 13.7064C20.8272 12.2021 20.634 10.6271 19.918 9.23678L19.7402 9.32835ZM16.4262 6.22649C17.8801 6.8824 19.0453 7.97904 19.7402 9.32835L19.918 9.23678C19.2016 7.84569 18.0019 6.71792 16.5085 6.04418L16.4262 6.22649ZM11.7456 5.73832C13.3209 5.39734 14.9719 5.57035 16.4262 6.22649L16.5085 6.04418C15.0147 5.37029 13.3201 5.19288 11.7033 5.54285L11.7456 5.73832ZM7.77675 8.09013C8.77288 6.91169 10.1704 6.07924 11.7456 5.73832L11.7033 5.54285C10.0866 5.89277 8.64963 6.74769 7.62401 7.96102L7.77675 8.09013ZM6.25394 11.8703C6.32975 10.4996 6.85793 9.17711 7.77675 8.09013L7.62401 7.96102C6.67779 9.08041 6.13251 10.4441 6.05424 11.8592L6.25394 11.8703ZM6.7894 11.7647H6.15409V11.9647H6.7894V11.7647ZM7.12142 12.3878C7.29995 12.1221 7.10953 11.7647 6.7894 11.7647V11.9647C6.94946 11.9647 7.04468 12.1434 6.95541 12.2763L7.12142 12.3878ZM5.71569 14.4802L7.12142 12.3878L6.95541 12.2763L5.54968 14.3686L5.71569 14.4802ZM5.04277 14.4663C5.19515 14.7146 5.55326 14.7219 5.71569 14.4802L5.54968 14.3686C5.46846 14.4895 5.28941 14.4858 5.21322 14.3617L5.04277 14.4663ZM3.7584 12.374L5.04277 14.4663L5.21322 14.3617L3.92885 12.2694L3.7584 12.374ZM4.0993 11.7647C3.78657 11.7647 3.5948 12.1075 3.7584 12.374L3.92885 12.2694C3.84705 12.1361 3.94294 11.9647 4.0993 11.9647V11.7647ZM4.89834 11.7647H4.0993V11.9647H4.89834V11.7647ZM6.6662 7.15139C5.53247 8.49261 4.87767 10.1417 4.79844 11.8601L4.99823 11.8693C5.07538 10.196 5.71299 8.58886 6.81894 7.2805L6.6662 7.15139ZM11.4379 4.31708C9.56057 4.72343 7.87676 5.71928 6.6662 7.15139L6.81894 7.2805C8.00001 5.88328 9.64445 4.9099 11.4803 4.51255L11.4379 4.31708ZM17.0242 4.90099C15.2836 4.11572 13.3151 3.91079 11.4379 4.31708L11.4803 4.51255C13.3159 4.11524 15.2408 4.31579 16.942 5.08329L17.0242 4.90099ZM21.033 8.66258C20.1816 7.00946 18.7653 5.68648 17.0242 4.90099L16.942 5.08329C18.6436 5.85096 20.0254 7.14282 20.8552 8.75415L21.033 8.66258ZM21.6888 13.9971C22.1174 12.1984 21.8849 10.3168 21.033 8.66258L20.8552 8.75415C21.6854 10.3663 21.9117 12.199 21.4943 13.9507L21.6888 13.9971ZM18.6902 18.538C20.1994 17.3941 21.2604 15.7951 21.6888 13.9971L21.4943 13.9507C21.077 15.702 20.0431 17.2616 18.5694 18.3786L18.6902 18.538ZM13.3875 20.3141C15.3122 20.305 17.1817 19.6814 18.6902 18.538L18.5694 18.3786C17.0962 19.4952 15.269 20.1052 13.3865 20.1141L13.3875 20.3141ZM8.06637 18.5888C9.58681 19.7175 11.4627 20.3233 13.3875 20.3141L13.3865 20.1141C11.504 20.1231 9.67046 19.5305 8.18558 18.4282L8.06637 18.5888ZM7.91597 17.5716C7.67662 17.894 7.74395 18.3494 8.06637 18.5888L8.18558 18.4282C7.95185 18.2547 7.90304 17.9245 8.07656 17.6908L7.91597 17.5716ZM8.93316 17.4212C8.61074 17.1818 8.15533 17.2492 7.91597 17.5716L8.07656 17.6908C8.25008 17.4571 8.58021 17.4082 8.81394 17.5818L8.93316 17.4212ZM13.7431 14.5099C13.8484 14.4511 13.9246 14.3623 13.9708 14.2482L13.7855 14.1731C13.7554 14.2474 13.709 14.2999 13.6456 14.3352L13.7431 14.5099ZM13.4413 14.596C13.5476 14.596 13.6494 14.5656 13.7455 14.5085L13.6433 14.3366C13.5747 14.3774 13.5078 14.396 13.4413 14.396V14.596ZM13.0889 14.596H13.4413V14.396H13.0889V14.596ZM14.7346 10.2403L12.9964 14.4579L13.1813 14.5341L14.9196 10.3165L14.7346 10.2403ZM14.9363 9.99616C14.8435 10.0549 14.776 10.1376 14.7343 10.241L14.9199 10.3157C14.9465 10.2496 14.9874 10.2005 15.0433 10.1651L14.9363 9.99616ZM15.2458 9.91001C15.1324 9.91001 15.0281 9.93797 14.9363 9.99616L15.0433 10.1651C15.1001 10.1291 15.1665 10.11 15.2458 10.11V9.91001ZM15.6013 9.91001H15.2458V10.11H15.6013V9.91001ZM13.9707 14.2486L15.6938 10.048L15.5088 9.97205L13.7856 14.1727L13.9707 14.2486ZM12.3997 11.0868C12.4442 11.0562 12.4818 11.0129 12.5143 10.9628L12.3466 10.8539C12.3229 10.8904 12.3022 10.9111 12.2864 10.922L12.3997 11.0868ZM12.2316 11.1326C12.2906 11.1326 12.3491 11.1207 12.3987 11.0875L12.2874 10.9213C12.2808 10.9257 12.265 10.9326 12.2316 10.9326V11.1326ZM12.0394 11.0782C12.1014 11.1118 12.1661 11.1326 12.2316 11.1326V10.9326C12.2088 10.9326 12.177 10.9253 12.1346 10.9023L12.0394 11.0782ZM11.8648 10.9838C11.9314 11.0168 11.9882 11.0476 12.0355 11.076L12.1385 10.9045C12.0854 10.8727 12.0237 10.8394 11.9537 10.8046L11.8648 10.9838ZM11.6438 10.8962C11.7284 10.9233 11.8019 10.9525 11.8648 10.9838L11.9537 10.8046C11.8801 10.7681 11.7969 10.7352 11.7047 10.7057L11.6438 10.8962ZM11.364 10.8558C11.4743 10.8558 11.5664 10.8699 11.642 10.8956L11.7066 10.7063C11.6054 10.6719 11.4907 10.6558 11.364 10.6558V10.8558ZM10.9587 10.9648C11.0377 10.8979 11.1669 10.8558 11.364 10.8558V10.6558C11.1434 10.6558 10.9593 10.7022 10.8294 10.8123L10.9587 10.9648ZM10.8374 11.2304C10.8374 11.1175 10.8774 11.0323 10.9579 10.9655L10.8302 10.8116C10.7018 10.9181 10.6374 11.0608 10.6374 11.2304H10.8374ZM10.8949 11.3881C10.8576 11.3483 10.8374 11.2981 10.8374 11.2304H10.6374C10.6374 11.3434 10.6734 11.444 10.7486 11.5246L10.8949 11.3881ZM11.0901 11.5184C11.0059 11.4789 10.9409 11.4342 10.8925 11.3857L10.7509 11.527C10.8191 11.5953 10.9047 11.6523 11.0052 11.6995L11.0901 11.5184ZM11.3945 11.6286C11.28 11.5958 11.1784 11.5589 11.0894 11.518L11.006 11.6998C11.1057 11.7456 11.217 11.7858 11.3395 11.8209L11.3945 11.6286ZM11.7631 11.7429C11.6373 11.701 11.5145 11.6629 11.3945 11.6286L11.3395 11.8209C11.4565 11.8544 11.5767 11.8916 11.7 11.9326L11.7631 11.7429ZM12.1379 11.8882C12.0156 11.8318 11.8903 11.7832 11.7618 11.7424L11.7013 11.933C11.8218 11.9713 11.9395 12.0169 12.0542 12.0698L12.1379 11.8882ZM12.4791 12.1108C12.3789 12.0209 12.265 11.9467 12.1379 11.8882L12.0542 12.0698C12.1641 12.1204 12.261 12.1838 12.3456 12.2596L12.4791 12.1108ZM12.7289 12.448C12.6672 12.3157 12.5837 12.2026 12.4783 12.1101L12.3464 12.2604C12.4298 12.3336 12.4969 12.4238 12.5477 12.5326L12.7289 12.448ZM12.8257 12.9253C12.8257 12.743 12.7947 12.582 12.7281 12.4462L12.5485 12.5344C12.5984 12.6358 12.6257 12.7649 12.6257 12.9253H12.8257ZM12.7121 13.4902C12.788 13.3133 12.8257 13.1247 12.8257 12.9253H12.6257C12.6257 13.0989 12.593 13.2605 12.5283 13.4113L12.7121 13.4902ZM12.3904 13.9503C12.531 13.8185 12.6385 13.6647 12.7124 13.4896L12.5281 13.4119C12.4653 13.5607 12.3741 13.6914 12.2536 13.8044L12.3904 13.9503ZM11.871 14.2567C12.0744 14.1832 12.2481 14.0817 12.3898 13.9508L12.2541 13.8039C12.1348 13.9141 11.9851 14.0028 11.803 14.0686L11.871 14.2567ZM11.1863 14.3672C11.4387 14.3672 11.6676 14.331 11.8713 14.2566L11.8027 14.0687C11.6248 14.1337 11.4198 14.1672 11.1863 14.1672V14.3672ZM10.7518 14.3259C10.8965 14.3534 11.0413 14.3672 11.1863 14.3672V14.1672C11.0541 14.1672 10.9217 14.1546 10.7892 14.1294L10.7518 14.3259ZM10.3385 14.2114C10.4721 14.2603 10.6098 14.2985 10.7516 14.3258L10.7895 14.1294C10.6581 14.1041 10.5307 14.0688 10.4073 14.0236L10.3385 14.2114ZM9.96381 14.0342C10.0815 14.1032 10.2062 14.1621 10.338 14.2112L10.4077 14.0237C10.2865 13.9786 10.1722 13.9246 10.0649 13.8617L9.96381 14.0342ZM9.64989 13.7998C9.7405 13.8867 9.84535 13.9648 9.96381 14.0342L10.0649 13.8617C9.95847 13.7993 9.8665 13.7305 9.7884 13.6555L9.64989 13.7998ZM9.90082 13.2713L9.63572 13.6725L9.80258 13.7827L10.0677 13.3816L9.90082 13.2713ZM10.0254 13.1643C9.97693 13.1896 9.93556 13.2238 9.90361 13.2673L10.0649 13.3856C10.0771 13.3689 10.094 13.3541 10.1178 13.3417L10.0254 13.1643ZM10.1861 13.122C10.1278 13.122 10.0726 13.1372 10.0219 13.1663L10.1213 13.3398C10.1429 13.3274 10.164 13.322 10.1861 13.322V13.122ZM10.4108 13.1937C10.3395 13.1491 10.264 13.122 10.1861 13.122V13.322C10.2166 13.322 10.2556 13.3325 10.3048 13.3632L10.4108 13.1937ZM10.6157 13.3161C10.5381 13.2714 10.4698 13.2306 10.4108 13.1937L10.3048 13.3632C10.3663 13.4017 10.4366 13.4437 10.5157 13.4894L10.6157 13.3161ZM10.8713 13.4332C10.7732 13.3971 10.6882 13.358 10.6157 13.3161L10.5157 13.4894C10.5998 13.5379 10.6956 13.5817 10.8023 13.6209L10.8713 13.4332ZM11.2104 13.4835C11.074 13.4835 10.9616 13.4657 10.8707 13.433L10.8029 13.6211C10.9209 13.6637 11.0575 13.6835 11.2104 13.6835V13.4835ZM11.6364 13.3695C11.5459 13.4409 11.4085 13.4835 11.2104 13.4835V13.6835C11.434 13.6835 11.6219 13.6358 11.7604 13.5264L11.6364 13.3695ZM11.7731 13.044C11.7731 13.1993 11.7239 13.3016 11.6371 13.3689L11.7597 13.5269C11.9059 13.4135 11.9731 13.2465 11.9731 13.044H11.7731ZM11.7118 12.8598C11.7501 12.902 11.7731 12.9601 11.7731 13.044H11.9731C11.9731 12.9207 11.9379 12.8112 11.8597 12.7253L11.7118 12.8598ZM11.5204 12.7221C11.6027 12.7607 11.6651 12.8067 11.7106 12.8586L11.8609 12.7266C11.794 12.6504 11.7077 12.589 11.6053 12.541L11.5204 12.7221ZM11.2219 12.6183C11.3354 12.6472 11.4347 12.6819 11.5204 12.7221L11.6053 12.541C11.5062 12.4945 11.3946 12.4558 11.2712 12.4245L11.2219 12.6183ZM10.853 12.5126C10.9785 12.5505 11.1009 12.5856 11.2204 12.6179L11.2726 12.4248C11.1551 12.3931 11.0346 12.3585 10.9109 12.3211L10.853 12.5126ZM10.4768 12.3726C10.5991 12.427 10.7245 12.4737 10.853 12.5126L10.9109 12.3211C10.7904 12.2847 10.6728 12.2409 10.5581 12.1899L10.4768 12.3726ZM10.1328 12.1452C10.2335 12.2396 10.3484 12.3154 10.4768 12.3726L10.5581 12.1899C10.4496 12.1416 10.3536 12.0781 10.2696 11.9993L10.1328 12.1452ZM9.88419 11.7916C9.94724 11.9302 10.0298 12.0486 10.1328 12.1452L10.2696 11.9993C10.1877 11.9225 10.1197 11.8263 10.0662 11.7088L9.88419 11.7916ZM9.79086 11.2727C9.79086 11.4721 9.82024 11.6459 9.88365 11.7904L10.0668 11.71C10.0177 11.5983 9.99086 11.4538 9.99086 11.2727H9.79086ZM9.89604 10.7883C9.82616 10.9439 9.79086 11.1057 9.79086 11.2727H9.99086C9.99086 11.1347 10.0198 11.0008 10.0785 10.8702L9.89604 10.7883ZM10.2039 10.3733C10.0695 10.4931 9.96643 10.6315 9.89604 10.7883L10.0785 10.8702C10.1366 10.7407 10.2223 10.6248 10.337 10.5225L10.2039 10.3733ZM10.6932 10.0859C10.5027 10.1573 10.3389 10.2527 10.2039 10.3733L10.337 10.5225C10.451 10.4208 10.5925 10.3373 10.7635 10.2731L10.6932 10.0859ZM11.355 9.9778C11.1105 9.9778 10.8895 10.0131 10.6936 10.0857L10.7631 10.2733C10.9327 10.2103 11.1295 10.1778 11.355 10.1778V9.9778ZM12.1167 10.0991C11.8821 10.0179 11.6279 9.9778 11.355 9.9778V10.1778C11.6082 10.1778 11.84 10.2149 12.0513 10.2881L12.1167 10.0991ZM12.7193 10.4348C12.5533 10.2892 12.3514 10.1777 12.1157 10.0988L12.0522 10.2884C12.2665 10.3602 12.4442 10.4596 12.5874 10.5852L12.7193 10.4348ZM12.5177 10.9572L12.7406 10.5589L12.5661 10.4612L12.3432 10.8595L12.5177 10.9572ZM16.091 13.8124C16.091 13.7635 16.1004 13.719 16.1187 13.6776L15.9357 13.5968C15.9057 13.6647 15.891 13.7369 15.891 13.8124H16.091ZM16.1187 13.95C16.1006 13.909 16.091 13.8635 16.091 13.8124H15.891C15.891 13.8893 15.9056 13.9625 15.9357 14.0307L16.1187 13.95ZM16.201 14.0615C16.1659 14.0285 16.1381 13.9906 16.1174 13.9472L15.9369 14.0335C15.9684 14.0993 16.011 14.1574 16.0642 14.2074L16.201 14.0615ZM16.3224 14.1344C16.2748 14.1159 16.234 14.091 16.1993 14.0599L16.0659 14.2089C16.1195 14.2569 16.1812 14.2941 16.2501 14.3209L16.3224 14.1344ZM16.4821 14.1615C16.4227 14.1615 16.3694 14.152 16.3214 14.134L16.2511 14.3213C16.3236 14.3484 16.4009 14.3615 16.4821 14.3615V14.1615ZM16.6397 14.134C16.5914 14.1521 16.5391 14.1615 16.4821 14.1615V14.3615C16.5616 14.3615 16.6378 14.3483 16.71 14.3213L16.6397 14.134ZM16.7648 14.0599C16.7306 14.0905 16.6894 14.1154 16.6397 14.134L16.71 14.3213C16.7809 14.2947 16.844 14.2574 16.8982 14.2089L16.7648 14.0599ZM16.8425 13.95C16.8239 13.9921 16.7976 14.0291 16.7631 14.0615L16.8999 14.2074C16.9538 14.1569 16.9958 14.0978 17.0254 14.0307L16.8425 13.95ZM16.8731 13.8124C16.8731 13.8624 16.863 13.9068 16.8437 13.9472L17.0242 14.0335C17.0571 13.9646 17.0731 13.8904 17.0731 13.8124H16.8731ZM16.8437 13.6803C16.8632 13.7211 16.8731 13.7647 16.8731 13.8124H17.0731C17.0731 13.7357 17.0569 13.6625 17.0242 13.5941L16.8437 13.6803ZM16.7648 13.5677C16.7977 13.5971 16.8234 13.6329 16.842 13.6765L17.0259 13.598C16.9963 13.5285 16.9537 13.4683 16.8982 13.4186L16.7648 13.5677ZM16.6397 13.4907C16.6884 13.509 16.7291 13.5342 16.7631 13.5661L16.8999 13.4202C16.8455 13.3692 16.7818 13.3304 16.71 13.3035L16.6397 13.4907ZM16.4821 13.4604C16.5381 13.4604 16.5895 13.4704 16.6372 13.4897L16.7125 13.3045C16.6397 13.2749 16.5626 13.2604 16.4821 13.2604V13.4604ZM16.3239 13.4897C16.3713 13.4705 16.4236 13.4604 16.4821 13.4604V13.2604C16.3999 13.2604 16.3217 13.2747 16.2486 13.3045L16.3239 13.4897ZM16.201 13.5661C16.2356 13.5337 16.2757 13.5084 16.3224 13.4903L16.2501 13.3039C16.1803 13.331 16.118 13.3697 16.0642 13.4202L16.201 13.5661ZM16.1179 13.6792C16.1386 13.6344 16.1658 13.5977 16.1993 13.5677L16.0659 13.4186C16.0111 13.4677 15.9679 13.527 15.9364 13.5953L16.1179 13.6792Z" fill="#3A464F" mask="url(#path-1-outside-1_1898_26204)"/>
</svg>
