<svg width="41" height="41" viewBox="0 0 41 41" fill="none" xmlns="http://www.w3.org/2000/svg">
<path fillRule="evenodd" clipRule="evenodd" d="M11.993 4.86182C10.948 4.86182 9.94577 5.31408 9.20682 6.11911C8.46787 6.92415 8.05273 8.01601 8.05273 9.1545V32.5691C8.05273 33.7076 8.46787 34.7995 9.20682 35.6045C9.94577 36.4096 10.948 36.8618 11.993 36.8618H28.1124C29.1575 36.8618 30.1597 36.4096 30.8986 35.6045C31.6376 34.7995 32.0527 33.7076 32.0527 32.5691V15.5085C32.0527 14.9366 31.9477 14.3705 31.744 13.8434C31.5404 13.3164 31.2421 12.839 30.8667 12.4392L24.9027 6.08523C24.1666 5.30108 23.1778 4.86196 22.1483 4.86182H11.993ZM10.9799 8.05072C11.2486 7.75798 11.613 7.59352 11.993 7.59352H21.4844V12.0814C21.4844 13.2199 21.8995 14.3117 22.6385 15.1167C23.3774 15.9218 24.3796 16.374 25.4247 16.374H29.5453V32.5691C29.5453 32.9831 29.3943 33.3802 29.1256 33.6729C28.8569 33.9657 28.4924 34.1301 28.1124 34.1301H11.993C11.613 34.1301 11.2486 33.9657 10.9799 33.6729C10.7112 33.3802 10.5602 32.9831 10.5602 32.5691V9.1545C10.5602 8.7405 10.7112 8.34346 10.9799 8.05072ZM28.4097 13.6423L23.9918 8.93565V12.0814C23.9918 12.4954 24.1428 12.8924 24.4115 13.1851C24.6802 13.4779 25.0447 13.6423 25.4247 13.6423H28.4097ZM16.0252 20.959C15.3328 20.959 14.7715 21.5706 14.7715 22.3249C14.7715 23.0792 15.3328 23.6907 16.0252 23.6907H24.0849C24.7773 23.6907 25.3386 23.0792 25.3386 22.3249C25.3386 21.5706 24.7773 20.959 24.0849 20.959H16.0252ZM14.7715 28.1793C14.7715 27.4249 15.3328 26.8134 16.0252 26.8134H20.0544C20.7468 26.8134 21.3081 27.4249 21.3081 28.1793C21.3081 28.9336 20.7468 29.5451 20.0544 29.5451H16.0252C15.3328 29.5451 14.7715 28.9336 14.7715 28.1793Z" fill="#9E1D1F"/>
</svg>
