<svg width="25" height="24" viewBox="0 0 25 24" fill="none" xmlns="http://www.w3.org/2000/svg">
<path d="M7.61621 11H9.61621V13H7.61621V11ZM7.61621 15H9.61621V17H7.61621V15ZM11.6162 11H13.6162V13H11.6162V11ZM11.6162 15H13.6162V17H11.6162V15ZM15.6162 11H17.6162V13H15.6162V11ZM15.6162 15H17.6162V17H15.6162V15Z" fill="#3A464F"/>
<path d="M5.61621 22H19.6162C20.7192 22 21.6162 21.103 21.6162 20V6C21.6162 4.897 20.7192 4 19.6162 4H17.6162V2H15.6162V4H9.61621V2H7.61621V4H5.61621C4.51321 4 3.61621 4.897 3.61621 6V20C3.61621 21.103 4.51321 22 5.61621 22ZM19.6162 8L19.6172 20H5.61621V8H19.6162Z" fill="#3A464F"/>
</svg>
