<svg width="25" height="25" viewBox="0 0 25 25" fill="none" xmlns="http://www.w3.org/2000/svg">
<path d="M14.583 4.60505C14.9029 4.51875 15.2366 4.49675 15.5649 4.54031C15.8933 4.58387 16.2099 4.69214 16.4967 4.85893C16.7835 5.02572 17.0349 5.24777 17.2365 5.51239C17.4381 5.77702 17.5859 6.07904 17.6716 6.40121L20.1641 15.7671C20.2498 16.0893 20.2717 16.4253 20.2284 16.7559C20.1851 17.0866 20.0776 17.4055 19.912 17.6943C19.7464 17.9831 19.5259 18.2362 19.2631 18.4392C19.0003 18.6422 18.7004 18.7911 18.3805 18.8774L12.6242 20.4316C12.3041 20.5182 11.9703 20.5404 11.6417 20.497C11.3131 20.4535 10.9963 20.3453 10.7093 20.1785C10.4223 20.0117 10.1707 19.7896 9.969 19.5248C9.76729 19.26 9.61938 18.9578 9.53372 18.6354L7.04211 9.26953C6.95641 8.94737 6.93456 8.61136 6.97782 8.2807C7.02108 7.95004 7.12859 7.63119 7.29422 7.34237C7.45985 7.05355 7.68035 6.80042 7.94314 6.59742C8.20592 6.39442 8.50584 6.24553 8.82576 6.15926L14.583 4.60505ZM7.03294 12.8064L8.64877 18.8737C8.80752 19.4752 9.12505 20.0221 9.56765 20.4565L9.1614 20.4344C8.49355 20.399 7.86698 20.098 7.4195 19.5975C6.97202 19.097 6.74028 18.4381 6.77525 17.7655L7.03294 12.8064V12.8064ZM14.9388 5.94317L9.18158 7.4983C8.88809 7.57753 8.63784 7.77085 8.48583 8.03579C8.33382 8.30073 8.29248 8.61561 8.37091 8.91122L10.8625 18.2781C10.9015 18.4245 10.9687 18.5618 11.0603 18.6821C11.152 18.8023 11.2662 18.9033 11.3966 18.9791C11.527 19.0549 11.6709 19.1041 11.8202 19.1239C11.9694 19.1437 12.1211 19.1336 12.2665 19.0944L18.0246 17.5402C18.3181 17.461 18.5684 17.2676 18.7204 17.0027C18.8724 16.7378 18.9137 16.4229 18.8353 16.1273L16.3428 6.75952C16.2641 6.46397 16.0721 6.21197 15.809 6.05889C15.5459 5.90582 15.2333 5.86419 14.9397 5.94317H14.9388ZM6.18467 11.4415L5.85912 17.7175C5.82519 18.3621 5.96917 18.9753 6.24795 19.509L5.86829 19.3604C5.55908 19.2409 5.27628 19.0612 5.03602 18.8316C4.79577 18.6021 4.60277 18.3271 4.46805 18.0224C4.33333 17.7177 4.25953 17.3893 4.25086 17.0559C4.24219 16.7225 4.29883 16.3906 4.41753 16.0793L6.18467 11.4415V11.4415ZM10.6443 8.53629C10.7606 8.50488 10.8819 8.49685 11.0013 8.51267C11.1208 8.52848 11.2359 8.56782 11.3402 8.62845C11.4445 8.68908 11.536 8.7698 11.6093 8.86601C11.6827 8.96222 11.7365 9.07204 11.7676 9.18919C11.7988 9.30634 11.8068 9.42853 11.7911 9.54878C11.7754 9.66903 11.7363 9.78499 11.6761 9.89004C11.6159 9.99509 11.5358 10.0872 11.4402 10.161C11.3447 10.2349 11.2356 10.289 11.1193 10.3204C11.003 10.3519 10.8816 10.3599 10.7622 10.3441C10.6428 10.3283 10.5276 10.2889 10.4233 10.2283C10.2126 10.1058 10.0589 9.90414 9.99591 9.66755C9.93292 9.43096 9.96584 9.17885 10.0874 8.9667C10.209 8.75455 10.4093 8.59973 10.6443 8.53629V8.53629Z" fill="#3A464F"/>
</svg>
