<svg width="13" height="13" viewBox="0 0 13 13" fill="none" xmlns="http://www.w3.org/2000/svg">
<g clipPath="url(#clip0_2124_25719)">
<path d="M6.9541 1.25C4.05488 1.25 1.7041 3.60078 1.7041 6.5C1.7041 9.39922 4.05488 11.75 6.9541 11.75C9.85332 11.75 12.2041 9.39922 12.2041 6.5C12.2041 3.60078 9.85332 1.25 6.9541 1.25ZM7.3291 9.03125C7.3291 9.08281 7.28691 9.125 7.23535 9.125H6.67285C6.62129 9.125 6.5791 9.08281 6.5791 9.03125V5.84375C6.5791 5.79219 6.62129 5.75 6.67285 5.75H7.23535C7.28691 5.75 7.3291 5.79219 7.3291 5.84375V9.03125ZM6.9541 5C6.80691 4.99699 6.66675 4.93641 6.56371 4.83125C6.46068 4.72609 6.40297 4.58473 6.40297 4.4375C6.40297 4.29027 6.46068 4.14891 6.56371 4.04375C6.66675 3.93859 6.80691 3.878 6.9541 3.875C7.1013 3.878 7.24145 3.93859 7.34449 4.04375C7.44753 4.14891 7.50524 4.29027 7.50524 4.4375C7.50524 4.58473 7.44753 4.72609 7.34449 4.83125C7.24145 4.93641 7.1013 4.99699 6.9541 5Z" fill="#3A464F"/>
</g>
<defs>
<clipPath id="clip0_2124_25719">
<rect width="12" height="12" fill="white" transform="translate(0.954102 0.5)"/>
</clipPath>
</defs>
</svg>
