<svg width="25" height="25" viewBox="0 0 25 25" fill="none" xmlns="http://www.w3.org/2000/svg">
<path fillRule="evenodd" clipRule="evenodd" d="M4.64091 3.00879C3.72387 3.00879 2.98047 3.76631 2.98047 4.70077V13.1801C2.98047 14.1145 3.72387 14.8721 4.64091 14.8721H21.32C22.2371 14.8721 22.9805 14.1145 22.9805 13.1801V4.70077C22.9805 3.76631 22.2371 3.00879 21.32 3.00879H4.64091ZM4.2887 4.70077C4.2887 4.50255 4.44639 4.34186 4.64091 4.34186H21.32C21.5146 4.34186 21.6722 4.50255 21.6722 4.70077V13.1801C21.6722 13.3783 21.5146 13.539 21.32 13.539H4.64091C4.44639 13.539 4.2887 13.3783 4.2887 13.1801V4.70077ZM3.63242 16.6316C3.27344 16.6316 2.98242 16.9226 2.98242 17.2816C2.98242 17.6406 3.27344 17.9316 3.63242 17.9316H22.3308C22.6898 17.9316 22.9808 17.6406 22.9808 17.2816C22.9808 16.9226 22.6898 16.6316 22.3308 16.6316H3.63242ZM2.98242 20.3583C2.98242 19.9993 3.27344 19.7083 3.63242 19.7083H22.3308C22.6898 19.7083 22.9808 19.9993 22.9808 20.3583C22.9808 20.7172 22.6898 21.0083 22.3308 21.0083H3.63242C3.27344 21.0083 2.98242 20.7172 2.98242 20.3583ZM18.5781 10.4784C19.4066 10.4784 20.0781 9.78976 20.0781 8.94026C20.0781 8.09076 19.4066 7.4021 18.5781 7.4021C17.7497 7.4021 17.0781 8.09076 17.0781 8.94026C17.0781 9.78976 17.7497 10.4784 18.5781 10.4784ZM8.72266 8.94026C8.72266 9.78976 8.05108 10.4784 7.22266 10.4784C6.39423 10.4784 5.72266 9.78976 5.72266 8.94026C5.72266 8.09076 6.39423 7.4021 7.22266 7.4021C8.05108 7.4021 8.72266 8.09076 8.72266 8.94026ZM14.6805 8.94033C14.6805 9.95235 13.8888 10.7167 12.9805 10.7167C12.0722 10.7167 11.2805 9.95235 11.2805 8.94033C11.2805 7.92832 12.0722 7.16401 12.9805 7.16401C13.8888 7.16401 14.6805 7.92832 14.6805 8.94033ZM15.9805 8.94033C15.9805 10.6393 14.6373 12.0167 12.9805 12.0167C11.3236 12.0167 9.98047 10.6393 9.98047 8.94033C9.98047 7.24133 11.3236 5.86401 12.9805 5.86401C14.6373 5.86401 15.9805 7.24133 15.9805 8.94033Z" fill="#3A464F"/>
</svg>
