<svg width="25" height="24" viewBox="0 0 25 24" fill="none" xmlns="http://www.w3.org/2000/svg">
<path fillRule="evenodd" clipRule="evenodd" d="M13.332 8.436C13.332 8.04594 13.6521 7.72974 14.047 7.72974L17.9325 7.72974C18.3274 7.72974 18.6475 8.04594 18.6475 8.436C18.6475 8.82606 18.3274 9.14226 17.9325 9.14226L14.047 9.14226C13.6521 9.14226 13.332 8.82606 13.332 8.436Z" fill="#3A464F"/>
<path fillRule="evenodd" clipRule="evenodd" d="M12.6445 12.0102C12.6445 11.6202 12.9646 11.304 13.3595 11.304L17.9311 11.304C18.3259 11.304 18.6461 11.6202 18.6461 12.0102C18.6461 12.4003 18.3259 12.7165 17.9311 12.7165L13.3595 12.7165C12.9646 12.7165 12.6445 12.4003 12.6445 12.0102Z" fill="#3A464F"/>
<path fillRule="evenodd" clipRule="evenodd" d="M11.8965 15.5859C11.8965 15.1958 12.2166 14.8796 12.6115 14.8796L17.8999 14.8796C18.2948 14.8796 18.6149 15.1958 18.6149 15.5859C18.6149 15.976 18.2948 16.2922 17.8999 16.2922L12.6115 16.2922C12.2166 16.2922 11.8965 15.976 11.8965 15.5859Z" fill="#3A464F"/>
<path d="M7.3549 14.1554C6.35976 14.1545 5.40566 13.7775 4.70199 13.1072C3.99832 12.437 3.60256 11.5282 3.60156 10.5803V3.46569C3.60156 3.05111 3.93765 2.71502 4.35223 2.71502C4.76681 2.71502 5.1029 3.05111 5.1029 3.46569V10.5803C5.1029 11.1492 5.34016 11.6948 5.76249 12.0971C6.18483 12.4994 6.75763 12.7254 7.3549 12.7254C7.95217 12.7254 8.52497 12.4994 8.94731 12.0971C9.36964 11.6948 9.6069 11.1492 9.6069 10.5803V4.14507C9.6069 3.95544 9.52781 3.77357 9.38704 3.63947C9.24626 3.50538 9.05532 3.43005 8.85623 3.43005C8.65715 3.43005 8.46621 3.50538 8.32543 3.63947C8.18466 3.77357 8.10557 3.95544 8.10557 4.14507V10.5446C8.10557 10.9592 7.76948 11.2953 7.3549 11.2953C6.94032 11.2953 6.60423 10.9592 6.60423 10.5446V4.14507C6.60423 3.57616 6.8415 3.03056 7.26383 2.62828C7.68616 2.226 8.25897 2 8.85623 2C9.4535 2 10.0263 2.226 10.4486 2.62828C10.871 3.03056 11.1082 3.57616 11.1082 4.14507V10.5803C11.1072 11.5282 10.7115 12.437 10.0078 13.1072C9.30414 13.7775 8.35004 14.1545 7.3549 14.1554Z" fill="#3A464F"/>
<path fillRule="evenodd" clipRule="evenodd" d="M13.4293 4.2026C13.4293 3.81254 13.7494 3.49634 14.1443 3.49634H19.7606C20.7774 3.49634 21.6016 4.3105 21.6016 5.31483V20.1815C21.6016 21.1859 20.7774 22 19.7606 22H9.23746C8.22072 22 7.39648 21.1859 7.39648 20.1815V16.9246C7.39648 16.5345 7.7166 16.2183 8.11148 16.2183C8.50636 16.2183 8.82648 16.5345 8.82648 16.9246V20.1815C8.82648 20.4058 9.01048 20.5875 9.23746 20.5875H19.7606C19.9876 20.5875 20.1716 20.4058 20.1716 20.1815V5.31483C20.1716 5.09062 19.9876 4.90886 19.7606 4.90886H14.1443C13.7494 4.90886 13.4293 4.59266 13.4293 4.2026Z" fill="#3A464F"/>
</svg>
