<svg width="25" height="25" viewBox="0 0 25 25" fill="none" xmlns="http://www.w3.org/2000/svg">
<path d="M21.394 8.47461C21.192 8.47461 16.544 8.50361 12.394 10.4826C8.24404 8.50361 3.59604 8.47461 3.39404 8.47461C3.12883 8.47461 2.87447 8.57997 2.68694 8.7675C2.4994 8.95504 2.39404 9.20939 2.39404 9.47461V19.3576C2.39404 19.4918 2.42105 19.6246 2.47345 19.7481C2.52585 19.8716 2.60257 19.9834 2.69904 20.0766C2.89404 20.2646 3.17904 20.3816 3.42804 20.3566L3.55504 20.3556C4.23804 20.3556 7.85104 20.4536 11.971 22.3806C11.987 22.3886 12.005 22.3856 12.021 22.3916C12.14 22.4406 12.265 22.4746 12.394 22.4746C12.523 22.4746 12.648 22.4406 12.768 22.3916C12.784 22.3856 12.802 22.3886 12.818 22.3806C16.938 20.4526 20.551 20.3556 21.234 20.3556L21.361 20.3566C21.599 20.3816 21.894 20.2646 22.09 20.0766C22.284 19.8876 22.394 19.6276 22.394 19.3576V9.47461C22.394 9.20939 22.2887 8.95504 22.1012 8.7675C21.9136 8.57997 21.6593 8.47461 21.394 8.47461ZM4.39404 10.5236C5.87904 10.6346 8.77504 11.0036 11.394 12.2156V19.9576C8.39404 18.7826 5.80404 18.4636 4.39404 18.3816V10.5236ZM20.394 18.3816C18.984 18.4636 16.394 18.7826 13.394 19.9576V12.2156C16.013 11.0036 18.909 10.6346 20.394 10.5236V18.3816Z" fill="#3A464F"/>
<path d="M12.394 8.47461C14.0509 8.47461 15.394 7.13146 15.394 5.47461C15.394 3.81776 14.0509 2.47461 12.394 2.47461C10.7372 2.47461 9.39404 3.81776 9.39404 5.47461C9.39404 7.13146 10.7372 8.47461 12.394 8.47461Z" fill="#3A464F"/>
</svg>
