<svg width="25" height="25" viewBox="0 0 25 25" fill="none" xmlns="http://www.w3.org/2000/svg">
<path fillRule="evenodd" clipRule="evenodd" d="M3.91044 3.01855C2.99341 3.01855 2.25 3.77608 2.25 4.71053V13.1898C2.25 14.1243 2.99341 14.8818 3.91044 14.8818H20.5896C21.5066 14.8818 22.25 14.1243 22.25 13.1898V4.71053C22.25 3.77608 21.5066 3.01855 20.5896 3.01855H3.91044ZM3.55823 4.71053C3.55823 4.51231 3.71592 4.35163 3.91044 4.35163H20.5896C20.7841 4.35163 20.9418 4.51231 20.9418 4.71053V13.1898C20.9418 13.3881 20.7841 13.5488 20.5896 13.5488H3.91044C3.71592 13.5488 3.55823 13.3881 3.55823 13.1898V4.71053ZM2.90195 16.6414C2.54297 16.6414 2.25195 16.9324 2.25195 17.2914C2.25195 17.6503 2.54297 17.9414 2.90195 17.9414H21.6004C21.9594 17.9414 22.2504 17.6503 22.2504 17.2914C22.2504 16.9324 21.9594 16.6414 21.6004 16.6414H2.90195ZM2.25195 20.368C2.25195 20.009 2.54297 19.718 2.90195 19.718H21.6004C21.9594 19.718 22.2504 20.009 22.2504 20.368C22.2504 20.727 21.9594 21.018 21.6004 21.018H2.90195C2.54297 21.018 2.25195 20.727 2.25195 20.368ZM17.8477 10.4882C18.6761 10.4882 19.3477 9.79953 19.3477 8.95003C19.3477 8.10052 18.6761 7.41187 17.8477 7.41187C17.0192 7.41187 16.3477 8.10052 16.3477 8.95003C16.3477 9.79953 17.0192 10.4882 17.8477 10.4882ZM7.99219 8.95003C7.99219 9.79953 7.32061 10.4882 6.49219 10.4882C5.66376 10.4882 4.99219 9.79953 4.99219 8.95003C4.99219 8.10052 5.66376 7.41187 6.49219 7.41187C7.32061 7.41187 7.99219 8.10052 7.99219 8.95003ZM13.95 8.9501C13.95 9.96212 13.1583 10.7264 12.25 10.7264C11.3417 10.7264 10.55 9.96212 10.55 8.9501C10.55 7.93808 11.3417 7.17378 12.25 7.17378C13.1583 7.17378 13.95 7.93808 13.95 8.9501ZM15.25 8.9501C15.25 10.6491 13.9069 12.0264 12.25 12.0264C10.5931 12.0264 9.25 10.6491 9.25 8.9501C9.25 7.25109 10.5931 5.87378 12.25 5.87378C13.9069 5.87378 15.25 7.25109 15.25 8.9501Z" fill="#3A464F"/>
</svg>
