<svg width="25" height="25" viewBox="0 0 25 25" fill="none" xmlns="http://www.w3.org/2000/svg">
<path fillRule="evenodd" clipRule="evenodd" d="M7.60369 5.50122C6.66378 5.50122 5.90184 6.26317 5.90184 7.20308V8.36505C5.90184 8.73531 6.202 9.03547 6.57227 9.03547C6.94253 9.03547 7.24269 8.73531 7.24269 8.36505V7.20308C7.24269 7.0037 7.40432 6.84208 7.60369 6.84208H20.3063C20.5057 6.84208 20.6673 7.0037 20.6673 7.20308V16.4813C20.6673 16.6806 20.5057 16.8423 20.3063 16.8423H17.9587C17.9901 16.7756 18.0076 16.7012 18.0076 16.6227V15.6741C18.0076 15.3892 17.7767 15.1583 17.4919 15.1583H14.9376C14.6528 15.1583 14.4219 15.3892 14.4219 15.6741V16.6227C14.4219 16.7012 14.4394 16.7756 14.4708 16.8423H11.4165C11.0463 16.8423 10.7461 17.1424 10.7461 17.5127C10.7461 17.8829 11.0463 18.1831 11.4165 18.1831H20.3063C21.2462 18.1831 22.0081 17.4212 22.0081 16.4813V7.20308C22.0081 6.26317 21.2462 5.50122 20.3063 5.50122H7.60369ZM8.85903 12.4502C8.85903 13.9641 7.62221 15.1914 6.09651 15.1914C4.57081 15.1914 3.33398 13.9641 3.33398 12.4502C3.33398 10.9362 4.57081 9.70894 6.09651 9.70894C7.62221 9.70894 8.85903 10.9362 8.85903 12.4502ZM9.14239 16.7944C9.92617 17.5129 10.3665 18.4873 10.3665 19.5034H6.18715H2.00781C2.00781 18.4873 2.44813 17.5129 3.23191 16.7944C4.01569 16.076 5.07872 15.6723 6.18715 15.6723C7.29558 15.6723 8.35861 16.076 9.14239 16.7944Z" fill="#3A464F"/>
</svg>
