<svg width="25" height="25" viewBox="0 0 25 25" fill="none" xmlns="http://www.w3.org/2000/svg">
<path fillRule="evenodd" clipRule="evenodd" d="M4.63047 6.01582C4.43717 6.01582 4.28047 6.17252 4.28047 6.36582V19.0665C4.28047 19.2598 4.43717 19.4165 4.63047 19.4165H21.3308C21.5241 19.4165 21.6808 19.2598 21.6808 19.0665V6.36582C21.6808 6.17252 21.5241 6.01582 21.3308 6.01582H4.63047ZM2.98047 6.36582C2.98047 5.45455 3.7192 4.71582 4.63047 4.71582H21.3308C22.2421 4.71582 22.9808 5.45455 22.9808 6.36582V19.0665C22.9808 19.9777 22.2421 20.7165 21.3308 20.7165H4.63047C3.7192 20.7165 2.98047 19.9777 2.98047 19.0665V6.36582ZM9.34766 10.1214C9.34766 9.76242 9.63867 9.4714 9.99766 9.4714H19.1244C19.4834 9.4714 19.7744 9.76242 19.7744 10.1214C19.7744 10.4804 19.4834 10.7714 19.1244 10.7714H9.99766C9.63867 10.7714 9.34766 10.4804 9.34766 10.1214ZM9.99766 12.0666C9.63867 12.0666 9.34766 12.3576 9.34766 12.7166C9.34766 13.0756 9.63867 13.3666 9.99766 13.3666H19.1244C19.4834 13.3666 19.7744 13.0756 19.7744 12.7166C19.7744 12.3576 19.4834 12.0666 19.1244 12.0666H9.99766ZM9.34766 15.3115C9.34766 14.9525 9.63867 14.6615 9.99766 14.6615H19.1244C19.4834 14.6615 19.7744 14.9525 19.7744 15.3115C19.7744 15.6705 19.4834 15.9615 19.1244 15.9615H9.99766C9.63867 15.9615 9.34766 15.6705 9.34766 15.3115ZM7.53503 10.8113C7.92243 10.8113 8.23648 10.5026 8.23648 10.1218C8.23648 9.74108 7.92243 9.43241 7.53503 9.43241C7.14764 9.43241 6.83359 9.74108 6.83359 10.1218C6.83359 10.5026 7.14764 10.8113 7.53503 10.8113ZM8.23648 12.7168C8.23648 13.0975 7.92243 13.4062 7.53503 13.4062C7.14764 13.4062 6.83359 13.0975 6.83359 12.7168C6.83359 12.336 7.14764 12.0273 7.53503 12.0273C7.92243 12.0273 8.23648 12.336 8.23648 12.7168ZM7.53503 16.0013C7.92243 16.0013 8.23648 15.6927 8.23648 15.3119C8.23648 14.9311 7.92243 14.6225 7.53503 14.6225C7.14764 14.6225 6.83359 14.9311 6.83359 15.3119C6.83359 15.6927 7.14764 16.0013 7.53503 16.0013Z" fill="#3A464F"/>
</svg>
