<svg width="41" height="41" viewBox="0 0 41 41" fill="none" xmlns="http://www.w3.org/2000/svg">
<path fillRule="evenodd" clipRule="evenodd" d="M8.57617 6.67285C7.4716 6.67285 6.57617 7.56828 6.57617 8.67285V32.6764C6.57617 33.7809 7.4716 34.6764 8.57617 34.6764H28.3755C29.4801 34.6764 30.3755 33.7809 30.3755 32.6764V27.3074C30.3755 26.4789 29.7039 25.8074 28.8755 25.8074C28.0471 25.8074 27.3755 26.4789 27.3755 27.3074V31.6764H9.57617V9.67285H27.3755V11.7908C27.3755 12.6192 28.0471 13.2908 28.8755 13.2908C29.7039 13.2908 30.3755 12.6192 30.3755 11.7908V8.67285C30.3755 7.56828 29.4801 6.67285 28.3755 6.67285H8.57617ZM29.7268 14.8629C29.725 14.8337 30.009 14.4636 30.3579 14.0406C31.2473 12.9617 31.3068 12.9685 32.9962 14.3388C34.4565 15.5234 34.5761 15.6484 34.5761 15.9885C34.5761 16.2253 33.4668 17.7277 33.2921 17.7277C33.1903 17.7277 29.732 14.9488 29.7268 14.8629ZM23.9346 22.0968C24.0107 21.9897 25.2077 20.485 26.5944 18.7529C28.2471 16.6885 29.1563 15.634 29.2333 15.692C29.8675 16.1687 32.676 18.4953 32.676 18.544C32.676 18.579 31.4877 20.0927 30.0355 21.9078L27.3949 25.2079L25.4173 26.0328C24.3296 26.4865 23.3804 26.8564 23.3077 26.8551C23.223 26.8535 23.1758 26.6888 23.1758 26.3944C23.1758 25.7135 23.7747 22.3217 23.9346 22.0968ZM26.2524 24.6396C26.3453 24.5887 26.4266 24.3768 25.7042 23.787C25.1844 23.3627 24.9469 23.2901 24.8512 23.2609C24.8383 23.2569 24.828 23.2538 24.8199 23.2506C24.687 23.1994 24.266 25.0874 24.386 25.2079C24.4372 25.2594 25.7016 24.9417 26.2524 24.6396ZM11.2676 13.7498C11.2676 13.1975 11.7153 12.7498 12.2676 12.7498H25.5544C26.1067 12.7498 26.5544 13.1975 26.5544 13.7498C26.5544 14.3021 26.1067 14.7498 25.5544 14.7498H12.2676C11.7153 14.7498 11.2676 14.3021 11.2676 13.7498ZM12.2676 17.2792C11.7153 17.2792 11.2676 17.7269 11.2676 18.2792C11.2676 18.8315 11.7153 19.2792 12.2676 19.2792H23.7758C24.3281 19.2792 24.7758 18.8315 24.7758 18.2792C24.7758 17.7269 24.3281 17.2792 23.7758 17.2792H12.2676ZM11.2676 22.8083C11.2676 22.256 11.7153 21.8083 12.2676 21.8083H21.3241C21.8764 21.8083 22.3241 22.256 22.3241 22.8083C22.3241 23.3606 21.8764 23.8083 21.3241 23.8083H12.2676C11.7153 23.8083 11.2676 23.3606 11.2676 22.8083ZM12.2676 26.3374C11.7153 26.3374 11.2676 26.7851 11.2676 27.3374C11.2676 27.8897 11.7153 28.3374 12.2676 28.3374H20.3751C20.9273 28.3374 21.3751 27.8897 21.3751 27.3374C21.3751 26.7851 20.9273 26.3374 20.3751 26.3374H12.2676Z" fill="#9E1D1F"/>
</svg>
