<svg width="41" height="41" viewBox="0 0 41 41" fill="none" xmlns="http://www.w3.org/2000/svg">
<path fillRule="evenodd" clipRule="evenodd" d="M13.3564 8.16125C13.3564 7.07536 14.2229 6.19507 15.2919 6.19507H33.4746C34.5435 6.19507 35.4101 7.07535 35.4101 8.16124V25.9562C35.4101 26.0256 35.4053 26.0939 35.3962 26.1608C35.447 26.5316 35.3597 26.9221 35.122 27.2458C34.6426 27.8986 33.733 28.033 33.0905 27.546L28.7226 24.2358H15.2919C14.2229 24.2358 13.3564 23.3555 13.3564 22.2696V8.16125ZM32.5069 23.4241V9.14433H16.2596V21.2865H29.0438C29.4609 21.2865 29.8669 21.4234 30.2012 21.6767L32.5069 23.4241ZM5.41016 14.7552C5.41016 13.6693 6.2767 12.789 7.34563 12.789H10.5738C11.3755 12.789 12.0254 13.4492 12.0254 14.2637C12.0254 15.0781 11.3755 15.7383 10.5738 15.7383H8.31337V30.2157L10.6601 28.3624C10.9998 28.0941 11.4177 27.9485 11.848 27.9485H24.039V27.3158C24.039 26.5014 24.6889 25.8411 25.4906 25.8411C26.2923 25.8411 26.9422 26.5014 26.9422 27.3158V28.9316C26.9422 30.0175 26.0757 30.8978 25.0068 30.8978H12.1799L8.53357 33.7775C7.26218 34.7816 5.41016 33.8612 5.41016 32.2253V14.7552Z" fill="#9E1D1F"/>
</svg>
