<svg width="25" height="25" viewBox="0 0 25 25" fill="none" xmlns="http://www.w3.org/2000/svg">
<path d="M7.94231 12.0186C7.7995 12.0186 7.66254 12.0778 7.56156 12.1833C7.46058 12.2888 7.40385 12.4319 7.40385 12.5811C7.40385 12.7302 7.46058 12.8733 7.56156 12.9788C7.66254 13.0843 7.7995 13.1436 7.94231 13.1436C8.08512 13.1436 8.22208 13.0843 8.32306 12.9788C8.42404 12.8733 8.48077 12.7302 8.48077 12.5811C8.48077 12.4319 8.42404 12.2888 8.32306 12.1833C8.22208 12.0778 8.08512 12.0186 7.94231 12.0186ZM7.40385 14.8311C7.40385 14.6819 7.46058 14.5388 7.56156 14.4333C7.66254 14.3278 7.7995 14.2686 7.94231 14.2686C8.08512 14.2686 8.22208 14.3278 8.32306 14.4333C8.42404 14.5388 8.48077 14.6819 8.48077 14.8311C8.48077 14.9802 8.42404 15.1233 8.32306 15.2288C8.22208 15.3343 8.08512 15.3936 7.94231 15.3936C7.7995 15.3936 7.66254 15.3343 7.56156 15.2288C7.46058 15.1233 7.40385 14.9802 7.40385 14.8311ZM9.55769 12.5811C9.55769 12.4319 9.61442 12.2888 9.7154 12.1833C9.81638 12.0778 9.95335 12.0186 10.0962 12.0186H14.4038C14.5467 12.0186 14.6836 12.0778 14.7846 12.1833C14.8856 12.2888 14.9423 12.4319 14.9423 12.5811C14.9423 12.7302 14.8856 12.8733 14.7846 12.9788C14.6836 13.0843 14.5467 13.1436 14.4038 13.1436H10.0962C9.95335 13.1436 9.81638 13.0843 9.7154 12.9788C9.61442 12.8733 9.55769 12.7302 9.55769 12.5811ZM10.0962 14.2686C9.95335 14.2686 9.81638 14.3278 9.7154 14.4333C9.61442 14.5388 9.55769 14.6819 9.55769 14.8311C9.55769 14.9802 9.61442 15.1233 9.7154 15.2288C9.81638 15.3343 9.95335 15.3936 10.0962 15.3936H14.4038C14.5467 15.3936 14.6836 15.3343 14.7846 15.2288C14.8856 15.1233 14.9423 14.9802 14.9423 14.8311C14.9423 14.6819 14.8856 14.5388 14.7846 14.4333C14.6836 14.3278 14.5467 14.2686 14.4038 14.2686H10.0962ZM7.40385 3.01855C6.83261 3.01855 6.28477 3.25561 5.88085 3.67756C5.47692 4.09952 5.25 4.67182 5.25 5.26855V16.5186C5.25 17.1153 5.47692 17.6876 5.88085 18.1095C6.28477 18.5315 6.83261 18.7686 7.40385 18.7686H14.9423C15.5135 18.7686 16.0614 18.5315 16.4653 18.1095C16.8692 17.6876 17.0962 17.1153 17.0962 16.5186V9.1093C17.0958 8.6619 16.9253 8.23297 16.6223 7.9168L12.4072 3.51243C12.1044 3.19628 11.6938 3.01865 11.2657 3.01855H7.40385ZM6.32692 5.26855C6.32692 4.97019 6.44038 4.68404 6.64235 4.47306C6.84431 4.26208 7.11823 4.14355 7.40385 4.14355H10.6346V8.08105C10.6346 8.52861 10.8048 8.95783 11.1078 9.2743C11.4107 9.59077 11.8216 9.76855 12.25 9.76855H16.0192V16.5186C16.0192 16.8169 15.9058 17.1031 15.7038 17.314C15.5018 17.525 15.2279 17.6436 14.9423 17.6436H7.40385C7.11823 17.6436 6.84431 17.525 6.64235 17.314C6.44038 17.1031 6.32692 16.8169 6.32692 16.5186V5.26855ZM11.7115 8.08105V4.37643L15.7963 8.64355H12.25C12.1072 8.64355 11.9702 8.58429 11.8693 8.4788C11.7683 8.37331 11.7115 8.23024 11.7115 8.08105ZM18.1731 9.76855C18.4587 9.76855 18.7326 9.88708 18.9346 10.0981C19.1365 10.309 19.25 10.5952 19.25 10.8936V16.5861C19.25 17.1681 19.1402 17.7445 18.927 18.2823C18.7138 18.8201 18.4012 19.3087 18.0072 19.7203C17.6132 20.1319 17.1455 20.4584 16.6307 20.6811C16.1159 20.9039 15.5641 21.0186 15.0069 21.0186H8.48077C8.19515 21.0186 7.92123 20.9 7.71927 20.6891C7.51731 20.4781 7.40385 20.1919 7.40385 19.8936H14.9423C15.7992 19.8936 16.6209 19.538 17.2268 18.905C17.8327 18.2721 18.1731 17.4137 18.1731 16.5186V9.76855Z" fill="#3A464F"/>
</svg>
