<svg width="25" height="25" viewBox="0 0 25 25" fill="none" xmlns="http://www.w3.org/2000/svg">
<path fillRule="evenodd" clipRule="evenodd" d="M8.43789 22.0604V19.4219H5.54184C5.13149 19.4219 4.79883 19.0893 4.79883 18.6789V2.95645C4.79883 2.54609 5.13148 2.21343 5.54184 2.21343H20.0563C20.4666 2.21343 20.7993 2.54609 20.7993 2.95645V18.6789C20.7993 19.0892 20.4666 19.4219 20.0563 19.4219H14.2974C13.9661 19.4219 13.6974 19.1533 13.6974 18.8219C13.6974 18.4905 13.9661 18.2219 14.2974 18.2219H19.5993V3.41343H5.99883V18.2219H8.66445C8.73303 18.2219 8.79893 18.2334 8.86032 18.2546H11.4776C11.5566 18.2546 11.6206 18.3186 11.6206 18.3976V22.0711C11.6206 22.1857 11.4925 22.2538 11.3976 22.1896L10.0578 21.2848C10.008 21.2512 9.94258 21.2523 9.89393 21.2875L8.6647 22.1763C8.57013 22.2446 8.43789 22.1771 8.43789 22.0604ZM8.56641 11.5832C8.56641 11.9146 8.83504 12.1832 9.16641 12.1832H13.8033C14.1346 12.1832 14.4033 11.9146 14.4033 11.5832C14.4033 11.2518 14.1346 10.9832 13.8033 10.9832L9.16641 10.9832C8.83504 10.9832 8.56641 11.2518 8.56641 11.5832ZM9.16641 9.57903C8.83504 9.57903 8.56641 9.3104 8.56641 8.97903C8.56641 8.64766 8.83504 8.37903 9.16641 8.37903H16.6455C16.9768 8.37903 17.2455 8.64766 17.2455 8.97903C17.2455 9.3104 16.9768 9.57903 16.6455 9.57903H9.16641ZM9.16641 6.9751C8.83504 6.9751 8.56641 6.70647 8.56641 6.3751C8.56641 6.04373 8.83504 5.7751 9.16641 5.7751H16.6455C16.9768 5.7751 17.2455 6.04373 17.2455 6.3751C17.2455 6.70647 16.9768 6.9751 16.6455 6.9751H9.16641Z" fill="#3A464F"/>
<circle cx="10.1164" cy="15.6408" r="1.48359" fill="#3A464F"/>
</svg>
