<svg width="25" height="25" viewBox="0 0 25 25" fill="none" xmlns="http://www.w3.org/2000/svg">
<path fillRule="evenodd" clipRule="evenodd" d="M12.9815 2.71582C12.5441 2.71582 12.1895 3.07045 12.1895 3.50791V6.002C12.1895 6.05839 12.1953 6.11341 12.2066 6.16647C9.08039 6.52155 6.59799 8.99962 6.23515 12.1244H3.77281C3.33521 12.1244 2.98047 12.4791 2.98047 12.9167C2.98047 13.3543 3.33521 13.7091 3.77281 13.7091H6.23515C6.59731 16.8281 9.07133 19.3029 12.1895 19.6651V21.9237C12.1895 22.3612 12.5441 22.7158 12.9815 22.7158C13.419 22.7158 13.7736 22.3612 13.7736 21.9237V19.665C16.8915 19.3026 19.3652 16.828 19.7274 13.7091H22.1889C22.6265 13.7091 22.9813 13.3543 22.9813 12.9167C22.9813 12.4791 22.6265 12.1244 22.1889 12.1244H19.7274C19.3646 8.9998 16.8824 6.52184 13.7565 6.16653C13.7677 6.11345 13.7736 6.05842 13.7736 6.002V3.50791C13.7736 3.07045 13.419 2.71582 12.9815 2.71582ZM15.7651 12.7157C15.7651 14.2527 14.5196 15.4986 12.9831 15.4986C11.4467 15.4986 10.2012 14.2527 10.2012 12.7157C10.2012 11.1788 11.4467 9.93287 12.9831 9.93287C14.5196 9.93287 15.7651 11.1788 15.7651 12.7157ZM18.3109 12.9167C18.3109 15.8618 15.9243 18.2485 12.9813 18.2485C10.0383 18.2485 7.65168 15.8618 7.65168 12.9167C7.65168 9.97165 10.0383 7.58498 12.9813 7.58498C15.9243 7.58498 18.3109 9.97165 18.3109 12.9167Z" fill="#3A464F"/>
</svg>
