<svg width="18" height="19" viewBox="0 0 18 19" fill="none" xmlns="http://www.w3.org/2000/svg">
<path d="M12.052 11.1158C12.108 10.6538 12.15 10.1918 12.15 9.71582C12.15 9.23982 12.108 8.77782 12.052 8.31582H14.418C14.53 8.76382 14.6 9.23282 14.6 9.71582C14.6 10.1988 14.53 10.6678 14.418 11.1158H12.052ZM10.813 15.0078C11.233 14.2308 11.555 13.3908 11.779 12.5158H13.844C13.1658 13.6836 12.0899 14.5682 10.813 15.0078V15.0078ZM10.638 11.1158H7.362C7.292 10.6538 7.25 10.1918 7.25 9.71582C7.25 9.23982 7.292 8.77082 7.362 8.31582H10.638C10.701 8.77082 10.75 9.23982 10.75 9.71582C10.75 10.1918 10.701 10.6538 10.638 11.1158ZM9 15.2878C8.419 14.4478 7.95 13.5168 7.663 12.5158H10.337C10.05 13.5168 9.581 14.4478 9 15.2878ZM6.2 6.91582H4.156C4.8272 5.74487 5.90236 4.85886 7.18 4.42382C6.76 5.20082 6.445 6.04082 6.2 6.91582ZM4.156 12.5158H6.2C6.445 13.3908 6.76 14.2308 7.18 15.0078C5.90504 14.568 4.83139 13.6832 4.156 12.5158V12.5158ZM3.582 11.1158C3.47 10.6678 3.4 10.1988 3.4 9.71582C3.4 9.23282 3.47 8.76382 3.582 8.31582H5.948C5.892 8.77782 5.85 9.23982 5.85 9.71582C5.85 10.1918 5.892 10.6538 5.948 11.1158H3.582ZM9 4.13682C9.581 4.97682 10.05 5.91482 10.337 6.91582H7.663C7.95 5.91482 8.419 4.97682 9 4.13682V4.13682ZM13.844 6.91582H11.779C11.5599 6.04884 11.2355 5.21195 10.813 4.42382C12.101 4.86482 13.172 5.75382 13.844 6.91582ZM9 2.71582C5.129 2.71582 2 5.86582 2 9.71582C2 11.5723 2.7375 13.3528 4.05025 14.6656C4.70026 15.3156 5.47194 15.8312 6.32122 16.183C7.17049 16.5348 8.08075 16.7158 9 16.7158C10.8565 16.7158 12.637 15.9783 13.9497 14.6656C15.2625 13.3528 16 11.5723 16 9.71582C16 8.79657 15.8189 7.88632 15.4672 7.03704C15.1154 6.18776 14.5998 5.41608 13.9497 4.76607C13.2997 4.11606 12.5281 3.60045 11.6788 3.24866C10.8295 2.89688 9.91925 2.71582 9 2.71582V2.71582Z" fill="#9E1D1F"/>
</svg>
