<svg width="41" height="41" viewBox="0 0 41 41" fill="none" xmlns="http://www.w3.org/2000/svg">
<path fillRule="evenodd" clipRule="evenodd" d="M5.72461 8.35385C5.72461 7.34038 6.56062 6.5188 7.5919 6.5188H33.8573C34.8886 6.5188 35.7246 7.34038 35.7246 8.35385V24.013C35.7246 25.0265 34.8886 25.8481 33.8573 25.8481H7.5919C6.56062 25.8481 5.72461 25.0265 5.72461 24.013V8.35385ZM8.4218 9.16942V23.1974H33.0274V9.16942H8.4218Z" fill="#1C1B3B"/>
<path d="M31.0987 16.1835C31.0987 17.3095 30.1698 18.2224 29.024 18.2224C27.8781 18.2224 26.9492 17.3095 26.9492 16.1835C26.9492 15.0574 27.8781 14.1445 29.024 14.1445C30.1698 14.1445 31.0987 15.0574 31.0987 16.1835Z" fill="#1C1B3B"/>
<path d="M14.5011 16.1835C14.5011 17.3095 13.5722 18.2224 12.4263 18.2224C11.2805 18.2224 10.3516 17.3095 10.3516 16.1835C10.3516 15.0574 11.2805 14.1445 12.4263 14.1445C13.5722 14.1445 14.5011 15.0574 14.5011 16.1835Z" fill="#1C1B3B"/>
<path fillRule="evenodd" clipRule="evenodd" d="M20.7257 17.7126C21.5851 17.7126 22.2818 17.0279 22.2818 16.1834C22.2818 15.3388 21.5851 14.6541 20.7257 14.6541C19.8663 14.6541 19.1696 15.3388 19.1696 16.1834C19.1696 17.0279 19.8663 17.7126 20.7257 17.7126ZM20.7257 20.2612C23.0174 20.2612 24.8752 18.4355 24.8752 16.1834C24.8752 13.9312 23.0174 12.1055 20.7257 12.1055C18.434 12.1055 16.5762 13.9312 16.5762 16.1834C16.5762 18.4355 18.434 20.2612 20.7257 20.2612Z" fill="#1C1B3B"/>
<path fillRule="evenodd" clipRule="evenodd" d="M5.80078 29.1156C5.80078 28.3836 6.32424 27.7903 6.96996 27.7903L34.478 27.7903C35.1237 27.7903 35.6472 28.3836 35.6472 29.1156C35.6472 29.8475 35.1237 30.4409 34.478 30.4409L6.96996 30.4409C6.32424 30.4409 5.80078 29.8475 5.80078 29.1156Z" fill="#1C1B3B"/>
<path fillRule="evenodd" clipRule="evenodd" d="M5.80078 33.1935C5.80078 32.4615 6.32424 31.8682 6.96996 31.8682L34.478 31.8682C35.1237 31.8682 35.6472 32.4615 35.6472 33.1935C35.6472 33.9254 35.1237 34.5188 34.478 34.5188L6.96996 34.5188C6.32424 34.5188 5.80078 33.9254 5.80078 33.1935Z" fill="#1C1B3B"/>
</svg>
