<svg width="41" height="41" viewBox="0 0 41 41" fill="none" xmlns="http://www.w3.org/2000/svg">
<path fillRule="evenodd" clipRule="evenodd" d="M25.158 6.57835C25.8504 6.85491 26.1875 7.6404 25.911 8.3328L24.5287 11.7936C24.2521 12.486 23.4666 12.8231 22.7742 12.5466C22.0818 12.27 21.7447 11.4845 22.0213 10.7921L23.4036 7.3313C23.6801 6.6389 24.4656 6.3018 25.158 6.57835ZM30.6121 8.37658C30.9129 7.69434 30.6036 6.89748 29.9214 6.59674C29.2391 6.296 28.4423 6.60527 28.1415 7.28752L23.8167 17.0988C23.5109 17.0201 23.1986 16.9578 22.8809 16.9128L18.3221 7.25574C18.0038 6.58151 17.1992 6.29296 16.525 6.61124C15.8507 6.92953 15.5622 7.73412 15.8805 8.40836L19.9366 17.0006C19.4167 17.1063 18.9135 17.259 18.4315 17.4539L13.2807 7.22488C12.9453 6.55896 12.1337 6.29096 11.4677 6.62629C10.8018 6.96162 10.5338 7.77329 10.8691 8.43921L16.1111 18.8491C14.1773 20.4684 12.9452 22.9165 12.9452 25.6561C12.9452 30.532 16.8484 34.4847 21.6633 34.4847C26.4783 34.4847 30.3815 30.532 30.3815 25.6561C30.3815 22.5028 28.7491 19.7357 26.2934 18.174L30.6121 8.37658ZM27.6815 25.6561C27.6815 29.073 24.9551 31.7847 21.6633 31.7847C18.3715 31.7847 15.6452 29.073 15.6452 25.6561C15.6452 22.2391 18.3715 19.5274 21.6633 19.5274C24.9551 19.5274 27.6815 22.2391 27.6815 25.6561Z" fill="#1C1B3B"/>
</svg>
