<svg width="41" height="41" viewBox="0 0 41 41" fill="none" xmlns="http://www.w3.org/2000/svg">
<path fillRule="evenodd" clipRule="evenodd" d="M24.5273 14.3569C24.5273 13.9427 24.1916 13.6069 23.7773 13.6069C23.3631 13.6069 23.0273 13.9427 23.0273 14.3569V15.3569H22.0273C21.6131 15.3569 21.2773 15.6927 21.2773 16.1069C21.2773 16.5211 21.6131 16.8569 22.0273 16.8569H23.0273V17.8569C23.0273 18.2711 23.3631 18.6069 23.7773 18.6069C24.1916 18.6069 24.5273 18.2711 24.5273 17.8569V16.8569H25.5273C25.9416 16.8569 26.2773 16.5211 26.2773 16.1069C26.2773 15.6927 25.9416 15.3569 25.5273 15.3569H24.5273V14.3569Z" fill="#1C1B3B"/>
<path fillRule="evenodd" clipRule="evenodd" d="M12.4679 8.99515V32.0425H28.9814V14.5489L22.829 8.99515H12.4679ZM9.72461 8.67414C9.72461 7.48378 10.7936 6.5188 12.1123 6.5188H22.9763C23.6095 6.5188 24.2168 6.74588 24.6646 7.15008L31.0253 12.8919C31.4731 13.2961 31.7246 13.8443 31.7246 14.4159V32.3635C31.7246 33.5538 30.6556 34.5188 29.337 34.5188H12.1123C10.7936 34.5188 9.72461 33.5538 9.72461 32.3635V8.67414Z" fill="#1C1B3B"/>
<path fillRule="evenodd" clipRule="evenodd" d="M20.8219 18.0629C20.4135 17.0785 19.0203 17.0753 18.6073 18.0577L16.5107 23.0447C16.463 23.1244 16.4261 23.2112 16.402 23.3033L15.2503 26.0428C15.0362 26.5519 15.2755 27.1381 15.7846 27.3522C16.2937 27.5662 16.8799 27.327 17.094 26.8179L18.0443 24.5575H21.3512L22.2872 26.8135C22.4988 27.3237 23.0839 27.5656 23.5941 27.354C24.1042 27.1423 24.3462 26.5572 24.1345 26.0471L20.8219 18.0629ZM20.5214 22.5575L19.7087 20.5986L18.8851 22.5575H20.5214Z" fill="#1C1B3B"/>
</svg>
