<svg width="41" height="41" viewBox="0 0 41 41" fill="none" xmlns="http://www.w3.org/2000/svg">
<path fillRule="evenodd" clipRule="evenodd" d="M10.7246 8.28103C10.7246 7.30777 11.5223 6.5188 12.5063 6.5188H23.5792C24.0137 6.5188 24.4331 6.67579 24.7587 6.96023L34.1224 15.1405C34.5053 15.475 34.7246 15.956 34.7246 16.4613V32.7565C34.7246 33.7297 33.9269 34.5187 32.9429 34.5187H12.5063C11.5223 34.5187 10.7246 33.7297 10.7246 32.7565V8.28103ZM13.2981 9.06424V31.9733H32.1511V19.1781H23.1797C22.1957 19.1781 21.398 18.3891 21.398 17.4158V9.06424H13.2981ZM23.9715 9.66871V16.6326H31.9429L23.9715 9.66871ZM20.7438 23.1714C20.0331 23.1714 19.457 23.7412 19.457 24.4441C19.457 25.147 20.0331 25.7168 20.7438 25.7168H28.8541C29.5648 25.7168 30.1409 25.147 30.1409 24.4441C30.1409 23.7412 29.5648 23.1714 28.8541 23.1714H20.7438ZM20.7438 27.5701C20.0331 27.5701 19.457 28.1399 19.457 28.8428C19.457 29.5457 20.0331 30.1155 20.7438 30.1155H28.8541C29.5648 30.1155 30.1409 29.5457 30.1409 28.8428C30.1409 28.1399 29.5648 27.5701 28.8541 27.5701H20.7438ZM17.8248 24.2485C17.8248 24.9459 17.2532 25.5112 16.5482 25.5112C15.8431 25.5112 15.2716 24.9459 15.2716 24.2485C15.2716 23.5512 15.8431 22.9858 16.5482 22.9858C17.2532 22.9858 17.8248 23.5512 17.8248 24.2485ZM17.8248 28.8428C17.8248 29.5401 17.2532 30.1054 16.5482 30.1054C15.8431 30.1054 15.2716 29.5401 15.2716 28.8428C15.2716 28.1454 15.8431 27.5801 16.5482 27.5801C17.2532 27.5801 17.8248 28.1454 17.8248 28.8428Z" fill="#1C1B3B"/>
</svg>
