<svg width="41" height="41" viewBox="0 0 41 41" fill="none" xmlns="http://www.w3.org/2000/svg">
<path fillRule="evenodd" clipRule="evenodd" d="M10.8906 32.9491C10.8906 32.0822 11.556 31.3794 12.3767 31.3794H17.2149C18.0356 31.3794 18.701 32.0822 18.701 32.9491C18.701 33.816 18.0356 34.5188 17.2149 34.5188H12.3767C11.556 34.5188 10.8906 33.816 10.8906 32.9491Z" fill="#1C1B3B"/>
<path fillRule="evenodd" clipRule="evenodd" d="M9.7001 6.5188C8.27144 6.5188 7.11328 7.74214 7.11328 9.2512V17.7572C7.11328 18.6241 7.77861 19.3269 8.59933 19.3269C9.42005 19.3269 10.0854 18.6241 10.0854 17.7572V12.1903L20.7936 21.4084C21.7436 22.2262 23.1065 22.2276 24.058 21.4118L34.7522 12.2431V30.0628H21.0231C20.2023 30.0628 19.537 30.7656 19.537 31.6325C19.537 32.4994 20.2023 33.2022 21.0231 33.2022H35.1375C36.5662 33.2022 37.7243 31.9788 37.7243 30.4698V9.25121C37.7243 7.74214 36.5662 6.5188 35.1375 6.5188H9.7001ZM33.0511 9.65816H11.8485L22.4283 18.7657L33.0511 9.65816Z" fill="#1C1B3B"/>
<path fillRule="evenodd" clipRule="evenodd" d="M3.72461 23.0609C3.72461 22.194 4.33493 21.4912 5.08781 21.4912H12.6202C13.3731 21.4912 13.9834 22.194 13.9834 23.0609C13.9834 23.9278 13.3731 24.6306 12.6202 24.6306H5.08781C4.33493 24.6306 3.72461 23.9278 3.72461 23.0609Z" fill="#1C1B3B"/>
<path fillRule="evenodd" clipRule="evenodd" d="M7.11523 28.1671C7.11523 27.3002 7.69719 26.5974 8.41508 26.5974L15.0872 26.5974C15.8051 26.5974 16.387 27.3002 16.387 28.1671C16.387 29.034 15.8051 29.7368 15.0872 29.7368L8.41508 29.7368C7.69719 29.7368 7.11523 29.034 7.11523 28.1671Z" fill="#1C1B3B"/>
</svg>
