<svg width="41" height="41" viewBox="0 0 41 41" fill="none" xmlns="http://www.w3.org/2000/svg">
<path fillRule="evenodd" clipRule="evenodd" d="M13.888 28.1308C14.2265 28.4695 14.6967 28.5975 15.1348 28.5139C15.1718 28.5172 15.2091 28.5185 15.2466 28.5177C15.5035 28.5121 15.7485 28.4078 15.9306 28.2264L19.4305 24.7265H19.4325C19.5052 24.6538 19.5655 24.5712 19.6122 24.4817C20.1233 23.9841 20.1347 23.1664 19.6375 22.6547C19.14 22.1428 18.3216 22.1311 17.8096 22.6286L14.8846 25.4711L14.2029 24.7892C13.6981 24.2843 12.8797 24.2842 12.3748 24.7889C11.87 25.2936 11.8698 26.112 12.3745 26.6169L13.888 28.1308ZM6.80858 8.81367C6.75323 9.04263 6.72461 9.27911 6.72461 9.51854V31.5184C6.72461 31.7522 6.75189 31.9831 6.80469 32.207V32.2478C6.80469 33.5019 7.80917 34.5186 9.04827 34.5186H32.4019C33.641 34.5186 34.6454 33.5019 34.6454 32.2478V32.2024C34.6975 31.98 34.7245 31.7506 34.7245 31.5184V9.51854C34.7245 9.28113 34.6963 9.04662 34.6419 8.81948C34.5828 7.75327 33.797 6.88354 32.7777 6.70953C32.4441 6.58442 32.0877 6.51855 31.7245 6.51855H9.72459C9.36107 6.51855 9.00434 6.58453 8.67043 6.70986C7.65393 6.88434 6.8701 7.7508 6.80858 8.81367ZM19.6113 14.6778C20.1233 14.1803 20.135 13.3619 19.6375 12.85C19.14 12.338 18.3216 12.3263 17.8096 12.8238L14.8846 15.6664L14.2029 14.9844C13.6981 14.4796 12.8797 14.4794 12.3748 14.9841C11.87 15.4889 11.8698 16.3073 12.3745 16.8122L13.888 18.3261C14.4261 18.8643 15.2968 18.8706 15.8426 18.3402L19.6113 14.6778ZM22.8668 14.3954C22.1529 14.3954 21.5742 14.9741 21.5742 15.688C21.5742 16.4019 22.1529 16.9806 22.8668 16.9806H28.5181C29.232 16.9806 29.8107 16.4019 29.8107 15.688C29.8107 14.9741 29.232 14.3954 28.5181 14.3954H22.8668ZM21.5742 25.4927C21.5742 24.7789 22.1529 24.2001 22.8668 24.2001H28.5181C29.232 24.2001 29.8107 24.7789 29.8107 25.4927C29.8107 26.2066 29.232 26.7853 28.5181 26.7853H22.8668C22.1529 26.7853 21.5742 26.2066 21.5742 25.4927ZM9.34091 31.9516V9.24476H32.1092V31.9516H9.34091Z" fill="#1C1B3B"/>
</svg>
