<svg width="41" height="41" viewBox="0 0 41 41" fill="none" xmlns="http://www.w3.org/2000/svg">
<path fillRule="evenodd" clipRule="evenodd" d="M13.6111 6.51855C14.3337 6.51855 14.9195 7.10633 14.9195 7.83138V11.9831C14.9195 12.7081 14.3337 13.2959 13.6111 13.2959C12.8885 13.2959 12.3027 12.7081 12.3027 11.9831V7.83138C12.3027 7.10633 12.8885 6.51855 13.6111 6.51855Z" fill="#1C1B3B"/>
<path fillRule="evenodd" clipRule="evenodd" d="M28.4314 6.51855C29.154 6.51855 29.7398 7.10633 29.7398 7.83138V11.9831C29.7398 12.7081 29.154 13.2959 28.4314 13.2959C27.7088 13.2959 27.123 12.7081 27.123 11.9831V7.83138C27.123 7.10633 27.7088 6.51855 28.4314 6.51855Z" fill="#1C1B3B"/>
<path fillRule="evenodd" clipRule="evenodd" d="M9.34135 13.5637V31.5399C9.34135 31.7749 9.53661 31.9654 9.77747 31.9654H31.6717C31.9126 31.9654 32.1079 31.7749 32.1079 31.5399V13.5637H34.7246V31.5399C34.7246 33.185 33.3578 34.5187 31.6717 34.5187H9.77747C8.09142 34.5187 6.72461 33.185 6.72461 31.5399V13.5637H9.34135Z" fill="#1C1B3B"/>
<path d="M6.74023 10.8767C6.74023 9.90991 7.52127 9.12622 8.48473 9.12622H32.969C33.9324 9.12622 34.7135 9.90992 34.7135 10.8767V15.9507H6.74023V10.8767Z" fill="#1C1B3B"/>
</svg>
