<svg width="41" height="41" viewBox="0 0 41 41" fill="none" xmlns="http://www.w3.org/2000/svg">
<path fillRule="evenodd" clipRule="evenodd" d="M9.41459 9.21663V26.1008H32.0346V9.21663H9.41459ZM6.72461 8.86692C6.72461 7.57009 7.77283 6.5188 9.06589 6.5188H32.3833C33.6764 6.5188 34.7246 7.57009 34.7246 8.86692V26.4505C34.7246 27.7474 33.6764 28.7987 32.3833 28.7987H22.1204V31.5049C22.1204 31.5784 22.1147 31.6505 22.1039 31.7209H26.936C27.7064 31.7209 28.3308 32.3472 28.3308 33.1198C28.3308 33.8924 27.7064 34.5187 26.936 34.5187H14.5116C13.7413 34.5187 13.1168 33.8924 13.1168 33.1198C13.1168 32.3472 13.7413 31.7209 14.5116 31.7209H19.3473C19.3364 31.6505 19.3308 31.5784 19.3308 31.5049V28.7987H9.06589C7.77284 28.7987 6.72461 27.7474 6.72461 26.4505V8.86692Z" fill="#1C1B3B"/>
</svg>
