<svg width="23" height="23" viewBox="0 0 23 23" fill="none" xmlns="http://www.w3.org/2000/svg">
<path fillRule="evenodd" clipRule="evenodd" d="M10.403 11.2152L12.2944 15.4168C12.429 15.7158 12.7803 15.849 13.0792 15.7143C13.3781 15.5797 13.5112 15.2282 13.3766 14.9292L11.0181 9.68989C10.7738 9.14714 10.0014 9.15289 9.76524 9.69924L7.50058 14.9373C7.37046 15.2382 7.50885 15.5877 7.80968 15.7179C8.11051 15.8481 8.45986 15.7096 8.58998 15.4087L10.403 11.2152Z" fill="#3A464F"/>
<path fillRule="evenodd" clipRule="evenodd" d="M8.35571 13.1196C8.35571 12.7917 8.62142 12.5259 8.94918 12.5259H11.6615C11.9893 12.5259 12.255 12.7917 12.255 13.1196C12.255 13.4475 11.9893 13.7133 11.6615 13.7133H8.94918C8.62142 13.7133 8.35571 13.4475 8.35571 13.1196Z" fill="#3A464F"/>
<path fillRule="evenodd" clipRule="evenodd" d="M13.0549 6.66626C13.2566 6.66626 13.4201 6.82984 13.4201 7.03163V9.4033C13.4201 9.60509 13.2566 9.76867 13.0549 9.76867C12.8532 9.76867 12.6897 9.60509 12.6897 9.4033V7.03163C12.6897 6.82984 12.8532 6.66626 13.0549 6.66626Z" fill="#3A464F"/>
<path fillRule="evenodd" clipRule="evenodd" d="M11.4985 8.24034C11.4985 8.03855 11.662 7.87497 11.8637 7.87497L14.2344 7.87497C14.4361 7.87497 14.5996 8.03855 14.5996 8.24034C14.5996 8.44213 14.4361 8.60571 14.2344 8.60571L11.8637 8.60571C11.662 8.60571 11.4985 8.44213 11.4985 8.24034Z" fill="#3A464F"/>
<path fillRule="evenodd" clipRule="evenodd" d="M4.22852 3.7557C4.22852 2.92331 4.903 2.24854 5.73501 2.24854H12.4699C12.8291 2.24854 13.1765 2.37695 13.4494 2.61063L17.7016 6.25129C18.036 6.53763 18.2285 6.95598 18.2285 7.39636V18.7414C18.2285 19.5738 17.554 20.2485 16.722 20.2485H5.73501C4.903 20.2485 4.22852 19.5738 4.22852 18.7414V3.7557ZM5.73501 3.436C5.55853 3.436 5.41545 3.57913 5.41545 3.7557V18.7414C5.41545 18.9179 5.55852 19.0611 5.73501 19.0611H16.722C16.8985 19.0611 17.0416 18.9179 17.0416 18.7414V7.39636C17.0416 7.30295 17.0007 7.21421 16.9298 7.15347L12.6777 3.5128C12.6198 3.46324 12.5461 3.436 12.4699 3.436H5.73501Z" fill="#3A464F"/>
</svg>
