<svg width="25" height="25" viewBox="0 0 25 25" fill="none" xmlns="http://www.w3.org/2000/svg">
<path fillRule="evenodd" clipRule="evenodd" d="M11.6901 2.6477C10.9725 2.80821 10.4919 3.31009 10.3401 4.05739C10.2822 4.34255 10.2684 5.52521 10.3187 5.89361L10.3467 6.09869L7.74282 6.09955C5.25606 6.10037 5.13184 6.10377 4.98067 6.17541C4.8143 6.2542 4.67148 6.44698 4.67125 6.59299C4.67111 6.67448 4.65453 6.67756 4.14978 6.69065C3.57197 6.70565 3.50786 6.72987 3.32974 7.00073C3.16352 7.25346 3.26645 7.62225 3.55221 7.79792C3.6621 7.8655 3.7615 7.87792 4.28773 7.88983C4.87441 7.90312 4.89683 7.90663 4.91401 7.98749C4.92382 8.03362 5.00092 8.39656 5.08528 8.79402C5.24682 9.55488 5.29775 9.69172 5.46914 9.82508C5.57195 9.90508 5.62019 9.90781 7.26416 9.92684L8.95353 9.94637L9.18782 11.5284L9.42212 13.1104L9.42328 16.0306L9.4244 18.9507L8.73199 20.3956C7.97079 21.9841 7.95185 22.0439 8.12455 22.3137C8.30843 22.601 8.03304 22.583 12.2502 22.583C16.4673 22.583 16.1919 22.601 16.3758 22.3137C16.5485 22.0439 16.5296 21.9841 15.7684 20.3956L15.076 18.9507L15.0784 16.011L15.0808 13.0714L15.3133 11.5089L15.5457 9.94637L17.229 9.92684C18.1548 9.91609 18.9376 9.89152 18.9684 9.87219C19.0828 9.80066 19.2019 9.67023 19.2353 9.58C19.2542 9.5289 19.3119 9.28281 19.3636 9.03312C19.4152 8.78347 19.4917 8.42683 19.5335 8.24062L19.6095 7.9021L20.2407 7.88905C20.9414 7.8746 20.9864 7.85964 21.1706 7.57948C21.3288 7.33901 21.244 6.99432 20.9752 6.78471C20.8848 6.71424 20.8066 6.70248 20.3506 6.69065C19.8554 6.67784 19.8293 6.67315 19.8293 6.5976C19.8293 6.45733 19.6749 6.24901 19.5147 6.17307C19.37 6.10447 19.2149 6.10037 16.7468 6.09955C14.2712 6.09873 14.1338 6.09506 14.1602 6.03033C14.1756 5.99272 14.1958 5.60162 14.2051 5.16119C14.2242 4.26267 14.1866 3.96817 14.0026 3.57446C13.6411 2.80079 12.6971 2.4225 11.6901 2.6477ZM12.7645 3.86075C13.0562 4.03857 13.1132 4.28505 13.0816 5.23377C13.06 5.88713 13.0344 6.02201 12.8615 6.39799C12.7756 6.58471 12.7563 6.66905 12.7752 6.77424C12.8101 6.96827 12.9201 7.13874 13.0626 7.21944C13.1778 7.28471 13.3609 7.28917 15.8713 7.28733L18.5567 7.28542L18.5552 7.36589C18.5543 7.41014 18.4899 7.7364 18.412 8.09089L18.2704 8.73542L16.5636 8.75496C14.9019 8.77398 14.854 8.77667 14.7512 8.85671C14.6931 8.90191 14.6171 8.9898 14.5823 9.05203C14.5403 9.12718 14.4242 9.80894 14.2361 11.0844L13.9531 13.0036V13.989C13.9531 14.7883 13.9438 14.9706 13.9038 14.9545C13.8767 14.9437 13.0947 14.3874 12.1661 13.7184C10.767 12.7105 10.4741 12.4839 10.4569 12.3961C10.4379 12.3001 10.3899 11.9731 10.0806 9.83676C9.97713 9.12211 9.93679 9.00269 9.75246 8.86546L9.63026 8.77449L7.92831 8.75496L6.22633 8.73542L6.08134 8.03937C6.00158 7.65651 5.94634 7.33288 5.95854 7.32014C5.97074 7.30737 7.1835 7.29346 8.65351 7.28917C11.2844 7.28151 11.3283 7.28014 11.4514 7.20057C11.7104 7.03319 11.7954 6.6708 11.6402 6.39619C11.4807 6.11416 11.4388 5.87678 11.4186 5.14166C11.4056 4.66779 11.4136 4.38392 11.4429 4.27099C11.5401 3.89798 11.8235 3.7422 12.3529 3.77087C12.5477 3.78142 12.6828 3.81095 12.7645 3.86075ZM12.2171 15.1836C13.0793 15.801 13.8229 16.3419 13.8695 16.3857C13.954 16.4648 13.9543 16.4692 13.9444 17.4636L13.9344 18.462H12.2502H10.5659L10.5563 16.2409C10.5481 14.3692 10.5547 14.0231 10.5981 14.0404C10.6264 14.0518 11.355 14.5662 12.2171 15.1836ZM14.5803 20.5324L15.0009 21.4113H12.2502H9.49948L9.92006 20.5324L10.3406 19.6534H12.2502H14.1598L14.5803 20.5324Z" fill="#3A464F"/>
</svg>
