<svg width="25" height="24" viewBox="0 0 25 24" fill="none" xmlns="http://www.w3.org/2000/svg">
<path fillRule="evenodd" clipRule="evenodd" d="M11.4224 4.5367C9.66707 4.695 7.97417 5.36107 6.60292 6.43289C6.14669 6.78949 5.40632 7.52817 5.06995 7.9623C4.16589 9.12915 3.57658 10.486 3.34923 11.9242C3.2217 12.731 3.25027 12.9605 3.50085 13.1418C3.58791 13.2049 3.65778 13.215 4.0725 13.2248L4.54498 13.236V14.4219V15.6079L4.27234 15.7383C3.14523 16.2772 2.90024 17.7088 3.78787 18.5694C4.50888 19.2685 5.63642 19.2685 6.35744 18.5694C7.24506 17.7088 7.00008 16.2772 5.87296 15.7383L5.60033 15.6079V14.4193V13.2307H6.31751H7.0347L7.05243 14.1772C7.07153 15.1982 7.10453 15.4373 7.30909 16.0372C7.90269 17.778 9.42792 19.0711 11.2992 19.4201C11.7289 19.5003 12.3762 19.5235 12.8119 19.4743C14.8474 19.2447 16.5516 17.9065 17.189 16.0372C17.3936 15.4373 17.4266 15.1982 17.4457 14.1772L17.4634 13.2307H18.1806H18.8978V14.4193V15.6079L18.6252 15.7383C17.8589 16.1046 17.4556 16.9287 17.6504 17.7298C17.805 18.3658 18.3507 18.8949 19.0066 19.0448C20.3185 19.3446 21.5098 18.1896 21.2006 16.9175C21.0783 16.4144 20.7112 15.9704 20.2258 15.7383L19.9531 15.6079V14.4193V13.2307L20.3841 13.2306C20.8754 13.2306 21.0056 13.1901 21.1397 12.9954C21.2433 12.845 21.2458 12.5308 21.1485 11.919C20.9197 10.4822 20.3305 9.127 19.4282 7.9623C19.092 7.52845 18.3517 6.7898 17.8952 6.43272C16.0832 5.01548 13.7363 4.32806 11.4224 4.5367ZM13.4979 5.62169C14.3573 5.76088 14.9697 5.95186 15.7493 6.32391C18.0954 7.44341 19.6897 9.54745 20.1111 12.0804L20.1326 12.2092L19.598 12.1998L19.0634 12.1904L18.9966 11.8693C18.8496 11.1634 18.5022 10.3245 18.0921 9.68474C16.9784 7.94771 15.0498 6.78983 12.9225 6.58119C10.6025 6.35362 8.26007 7.3238 6.82398 9.10698C6.18482 9.90058 5.70129 10.9102 5.50201 11.8673L5.43471 12.1904L4.90014 12.1998L4.36553 12.2092L4.38699 12.0804C4.6706 10.3759 5.52997 8.78145 6.77585 7.64837C8.0268 6.51065 9.62235 5.77453 11.2289 5.59386C11.4127 5.57319 11.6106 5.54979 11.6686 5.54184C11.9327 5.50579 13.0955 5.55654 13.4979 5.62169ZM13.2433 7.65352C15.493 8.04805 17.3036 9.66349 17.895 11.8039C17.9434 11.9789 17.983 12.1417 17.983 12.1656C17.9831 12.1994 17.8615 12.2071 17.4375 12.1998L16.8919 12.1904L16.7419 11.764C16.478 11.0134 16.1089 10.4549 15.5098 9.89955C13.8947 8.40247 11.454 8.2084 9.57712 9.42777C9.43288 9.52146 9.16648 9.73539 8.98513 9.90317C8.3839 10.4593 8.00896 11.0293 7.7485 11.7831L7.60775 12.1904L7.06136 12.1998C6.63679 12.2071 6.51501 12.1994 6.51508 12.1656C6.51511 12.1417 6.55472 11.9789 6.60309 11.8039C7.22934 9.53743 9.17847 7.89999 11.6044 7.60232C11.9453 7.56047 12.8792 7.58967 13.2433 7.65352ZM12.6411 9.71769C13.0435 9.84072 13.3315 10.1076 13.4822 10.4971C13.5419 10.6516 13.5542 10.7469 13.5443 10.9795C13.529 11.3385 13.4206 11.5865 13.1747 11.8247C12.5317 12.4474 11.4433 12.2623 11.0602 11.4651C10.9287 11.1915 10.9095 10.7721 11.0159 10.4971C11.1645 10.1131 11.4525 9.84283 11.8445 9.71953C12.1183 9.63341 12.3637 9.63283 12.6411 9.71769ZM9.89794 10.8567C9.88405 11.3178 9.93495 11.5545 10.1317 11.9431L10.2656 12.2074H9.49839C8.84361 12.2074 8.73121 12.2 8.73121 12.1568C8.73121 12.0511 9.0055 11.4972 9.18604 11.2383C9.3411 11.016 9.84602 10.468 9.89597 10.4679C9.9035 10.4678 9.90442 10.6428 9.89794 10.8567ZM14.9748 10.8186C15.0829 10.9352 15.2453 11.1381 15.3357 11.2694C15.498 11.5054 15.7669 12.0587 15.7669 12.1568C15.7669 12.2 15.6545 12.2074 14.9997 12.2074H14.2325L14.3664 11.9431C14.5627 11.5553 14.6141 11.3175 14.6002 10.8604L14.5884 10.4753L14.6833 10.5409C14.7355 10.5769 14.8667 10.7019 14.9748 10.8186ZM11.7214 14.2041C11.7214 15.1124 11.7261 15.1866 11.7922 15.3122C11.8718 15.4635 12.0745 15.5842 12.2491 15.5842C12.4236 15.5842 12.6263 15.4635 12.7059 15.3122C12.772 15.1866 12.7767 15.1124 12.7767 14.2041V13.2307H14.5925H16.4083L16.3908 14.1431C16.3747 14.9787 16.3656 15.0845 16.2827 15.4011C16.0885 16.1423 15.7298 16.7542 15.1733 17.2938C14.6113 17.8387 13.9812 18.1838 13.2028 18.3731C12.8734 18.4531 12.7613 18.4637 12.2491 18.4634C11.7598 18.4631 11.6161 18.4505 11.3344 18.3832C10.5381 18.1928 9.93632 17.8696 9.36165 17.3237C8.66652 16.6633 8.26929 15.907 8.13441 14.9873C8.11513 14.8559 8.09909 14.407 8.09871 13.9896L8.098 13.2307H9.90969H11.7214V14.2041ZM9.14495 14.1196C8.99642 14.1956 8.87193 14.3969 8.87193 14.5609C8.87193 14.7301 8.99635 14.9266 9.15244 15.0039C9.25748 15.0558 9.36006 15.0725 9.57409 15.0725C9.80528 15.0725 9.85692 15.0821 9.85692 15.1251C9.85692 15.1539 9.8888 15.2382 9.92774 15.3122C10.0074 15.4635 10.21 15.5842 10.3846 15.5842C10.5592 15.5842 10.7618 15.4635 10.8415 15.3122C10.9441 15.1171 10.9441 14.5163 10.8415 14.3213C10.7164 14.0836 10.5943 14.049 9.88472 14.0508C9.34888 14.0521 9.26083 14.0603 9.14495 14.1196ZM13.8589 14.1196C13.6479 14.2276 13.5858 14.3861 13.5858 14.8167C13.5858 15.1111 13.5989 15.2024 13.6567 15.3122C13.7363 15.4635 13.939 15.5842 14.1135 15.5842C14.2881 15.5842 14.4907 15.4635 14.5704 15.3122C14.6093 15.2382 14.6412 15.1539 14.6412 15.1251C14.6412 15.0821 14.6928 15.0725 14.924 15.0725C15.1381 15.0725 15.2406 15.0558 15.3457 15.0039C15.5018 14.9266 15.6262 14.7301 15.6262 14.5609C15.6262 14.3917 15.5018 14.1952 15.3457 14.1179C15.222 14.0567 15.1407 14.0494 14.5986 14.0508C14.0628 14.0521 13.9747 14.0603 13.8589 14.1196ZM11.3612 16.5754C11.2127 16.6514 11.0882 16.8527 11.0882 17.0167C11.0882 17.1859 11.2126 17.3824 11.3687 17.4597C11.4954 17.5224 11.5752 17.5283 12.2842 17.5283C12.9933 17.5283 13.0731 17.5224 13.1998 17.4597C13.3559 17.3824 13.4803 17.1859 13.4803 17.0167C13.4803 16.8475 13.3559 16.651 13.1998 16.5737C13.0726 16.5108 12.9951 16.5052 12.2769 16.5066C11.5658 16.5079 11.4804 16.5144 11.3612 16.5754ZM5.42866 16.6686C6.01748 16.9668 5.95876 17.7943 5.33234 18.0262C4.83038 18.2121 4.26883 17.8057 4.30647 17.2837C4.33496 16.8886 4.675 16.5733 5.07265 16.5733C5.18807 16.5733 5.29931 16.6031 5.42866 16.6686ZM19.7815 16.6686C20.3703 16.9668 20.3116 17.7943 19.6852 18.0262C19.1832 18.2121 18.6216 17.8057 18.6593 17.2837C18.6878 16.8886 19.0278 16.5733 19.4255 16.5733C19.5409 16.5733 19.6521 16.6031 19.7815 16.6686Z" fill="#3A464F"/>
</svg>
